<?xml version="1.0" standalone="no"?>
<!DOCTYPE svg PUBLIC "-//W3C//DTD SVG 20010904//EN"
 "http://www.w3.org/TR/2001/REC-SVG-20010904/DTD/svg10.dtd">
<svg version="1.0" xmlns="http://www.w3.org/2000/svg"
 width="2112.000000pt" height="2112.000000pt" viewBox="0 0 2112.000000 2112.000000"
 preserveAspectRatio="xMidYMid meet">
<metadata>
Created by potrace 1.11, written by Peter Selinger 2001-2013
</metadata>
<g transform="translate(0.000000,2112.000000) scale(0.100000,-0.100000)"
fill="#000000" stroke="none">
<path d="M11313 18216 c-58 -19 -109 -52 -138 -89 l-24 -32 -2033 1 c-1823 2
-2037 3 -2073 17 -22 9 -46 16 -53 17 -7 0 -28 11 -45 24 -35 27 -131 55 -168
51 -76 -10 -109 -19 -149 -42 -25 -14 -63 -36 -85 -47 l-40 -22 -1565 2 -1565
1 -41 21 c-89 45 -213 45 -299 0 -145 -77 -196 -298 -98 -426 l28 -37 1 -910
1 -910 -33 -37 c-31 -35 -55 -72 -60 -93 -34 -140 -6 -251 83 -324 59 -49 103
-66 188 -76 41 -4 66 -15 93 -40 20 -18 23 -33 25 -101 2 -58 9 -90 25 -121
26 -50 84 -109 132 -133 42 -21 139 -45 147 -36 3 3 12 1 20 -6 8 -6 34 -11
59 -11 24 0 44 -4 44 -8 0 -4 13 -16 29 -25 17 -10 32 -28 36 -42 7 -30 52
-72 76 -72 11 0 19 -4 19 -10 0 -5 4 -10 10 -10 5 0 19 -8 31 -17 23 -19 38
-34 153 -152 38 -39 74 -71 81 -71 15 0 45 -43 45 -63 0 -20 60 -77 81 -77 10
0 20 -9 24 -19 3 -11 14 -23 24 -26 10 -3 32 -23 50 -45 18 -22 38 -40 46 -40
8 0 27 -13 41 -30 15 -16 36 -32 48 -36 30 -9 56 -34 56 -54 0 -19 50 -70 68
-70 7 0 28 -16 48 -35 19 -19 39 -35 43 -35 5 0 26 -17 46 -37 20 -21 47 -49
61 -63 13 -14 24 -33 24 -43 0 -29 100 -126 141 -137 21 -6 43 -9 49 -8 13 3
80 -114 80 -139 0 -8 28 -41 63 -74 34 -33 97 -94 139 -135 68 -66 83 -76 117
-77 36 -2 40 -5 45 -33 4 -17 16 -41 28 -54 12 -12 22 -32 23 -44 6 -89 56
-178 125 -225 71 -48 171 -67 243 -45 10 3 34 -7 60 -28 60 -47 66 -53 82 -90
20 -46 35 -62 72 -81 17 -9 38 -25 45 -35 7 -11 22 -24 33 -30 11 -5 49 -38
84 -71 36 -34 68 -61 73 -61 4 0 10 -11 14 -24 3 -14 19 -31 38 -40 18 -8 43
-26 57 -39 13 -13 39 -32 56 -41 20 -10 39 -31 47 -51 8 -19 19 -35 23 -35 4
0 23 -22 41 -49 18 -26 44 -54 58 -61 13 -8 24 -19 24 -25 0 -17 51 -61 84
-72 22 -7 33 -19 43 -48 13 -39 36 -66 63 -77 9 -3 17 -20 18 -38 1 -19 17
-60 34 -93 51 -94 124 -139 258 -155 49 -7 53 -9 64 -41 14 -42 51 -71 97 -75
29 -2 50 -17 110 -74 40 -40 79 -72 86 -72 6 0 20 -14 30 -30 9 -17 34 -42 55
-55 24 -16 38 -33 38 -46 0 -24 60 -89 82 -89 8 0 21 -11 28 -25 7 -14 17 -25
22 -25 5 0 29 -20 55 -45 26 -26 55 -45 67 -45 13 0 45 -22 78 -52 30 -29 75
-71 99 -93 41 -37 43 -42 45 -100 1 -33 7 -72 13 -87 8 -22 7 -29 -6 -37 -9
-5 -26 -26 -38 -47 -14 -25 -33 -43 -52 -49 -41 -14 -60 -31 -98 -91 -37 -57
-71 -85 -128 -104 -49 -16 -84 -54 -92 -102 -4 -21 -10 -36 -14 -33 -17 10
-81 -17 -103 -43 -16 -19 -34 -28 -58 -30 -79 -6 -119 -20 -177 -63 -61 -46
-104 -124 -108 -197 -1 -26 -8 -59 -16 -72 -7 -14 -18 -34 -24 -44 -5 -10 -19
-24 -30 -30 -11 -6 -32 -23 -47 -38 -15 -14 -43 -34 -62 -43 -20 -10 -44 -31
-55 -49 -11 -17 -31 -42 -45 -55 -14 -14 -26 -30 -26 -37 0 -6 -35 -47 -77
-91 -43 -43 -91 -98 -108 -121 -20 -30 -40 -45 -65 -52 -20 -5 -52 -27 -72
-47 -47 -50 -77 -75 -112 -93 -16 -8 -41 -30 -55 -49 -14 -18 -38 -48 -53 -65
-15 -18 -30 -44 -33 -58 -5 -20 -15 -28 -43 -33 -27 -5 -52 -22 -93 -65 -31
-32 -74 -67 -97 -79 -40 -20 -72 -63 -72 -96 0 -10 -16 -19 -46 -27 -26 -7
-56 -24 -68 -37 -11 -13 -38 -39 -58 -59 -28 -26 -39 -46 -44 -78 -6 -40 -9
-45 -45 -54 -22 -6 -47 -23 -61 -41 -13 -16 -35 -45 -50 -63 -16 -19 -28 -40
-28 -48 0 -24 -29 -56 -58 -62 -15 -4 -44 -21 -64 -39 -59 -52 -88 -76 -93
-77 -3 0 -11 0 -19 0 -25 0 -74 -50 -82 -82 -3 -18 -12 -41 -18 -53 -16 -28
-63 -84 -68 -80 -6 7 -100 -21 -137 -40 -68 -34 -132 -123 -147 -200 -5 -27
-13 -39 -33 -46 -38 -15 -61 -39 -81 -85 -15 -33 -25 -42 -59 -52 -22 -7 -41
-16 -41 -21 0 -4 -13 -20 -29 -35 -17 -15 -45 -42 -63 -59 -46 -44 -80 -67
-101 -67 -10 0 -51 -33 -92 -73 -71 -68 -176 -172 -201 -198 -6 -6 -41 -41
-78 -76 -36 -36 -66 -68 -66 -72 0 -4 -11 -14 -25 -21 -13 -7 -27 -21 -31 -32
-3 -10 -11 -18 -18 -18 -35 0 -90 -97 -79 -139 4 -17 -15 -41 -88 -114 -84
-82 -98 -92 -129 -91 -64 3 -115 -42 -122 -107 -2 -28 -25 -56 -133 -166 -71
-73 -138 -140 -148 -150 -100 -97 -107 -102 -146 -107 -22 -3 -70 -12 -107
-22 -144 -36 -275 -172 -298 -309 -14 -82 -18 -95 -31 -95 -23 0 -85 -69 -85
-94 0 -13 -17 -42 -37 -66 -20 -23 -39 -49 -42 -58 -2 -10 -5 -496 -6 -1082
l-2 -1065 -30 -45 c-71 -106 -74 -213 -9 -325 81 -138 287 -180 430 -87 22 15
50 38 60 50 15 19 25 22 45 17 19 -5 1395 -16 2026 -16 893 0 2375 8 2380 13
4 4 17 3 29 -1 11 -4 583 -7 1270 -7 l1248 1 26 -24 c60 -55 181 -83 273 -61
30 7 79 28 109 48 l55 36 1899 1 1900 0 50 -41 c58 -48 94 -60 186 -63 96 -2
160 25 227 96 104 110 102 289 -5 400 l-47 49 0 283 0 282 31 27 c143 123 143
348 -1 457 l-30 24 0 554 0 554 26 39 c77 117 52 302 -51 379 -23 17 -46 35
-53 41 -6 6 -14 11 -17 12 -3 0 -18 5 -33 11 -74 28 -218 5 -285 -46 l-34 -25
-1161 0 c-1098 0 -1164 1 -1202 18 -56 25 -195 26 -250 1 -37 -17 -79 -18
-555 -19 -284 0 -526 2 -538 6 -12 4 -22 11 -22 16 0 14 -85 61 -122 68 -107
22 -229 -5 -282 -63 l-25 -26 -1166 0 c-642 0 -1170 3 -1173 6 -10 10 186 195
207 195 10 0 34 18 54 39 20 22 44 45 54 53 28 21 44 44 49 75 7 41 61 93 96
93 51 0 93 25 113 66 10 21 26 47 36 58 11 11 19 25 19 30 0 6 10 18 23 26 23
15 27 16 64 18 36 3 79 48 93 96 10 37 18 46 40 51 15 3 46 25 67 48 22 23 77
76 122 117 46 41 91 83 100 93 9 11 30 33 48 51 17 18 35 48 40 66 7 26 19 39
53 57 25 13 49 31 54 40 17 31 55 60 95 72 25 7 50 24 66 46 16 21 39 36 58
40 18 4 52 19 77 33 73 41 113 95 135 182 8 31 19 49 36 57 35 17 72 59 84 95
7 21 20 35 40 41 16 6 38 19 50 29 11 11 34 25 51 33 17 7 40 25 50 39 11 15
31 43 47 63 15 20 27 43 27 53 0 9 33 49 73 87 39 39 79 79 88 89 33 38 86 84
97 84 16 0 72 50 72 64 0 16 39 34 65 30 68 -10 196 55 243 125 28 41 67 141
55 141 -2 0 4 14 14 30 9 16 23 30 29 30 7 0 25 16 40 35 51 63 157 165 171
165 5 0 28 18 51 40 22 22 45 40 50 40 14 0 43 48 45 73 1 11 22 39 46 62 24
22 54 49 66 60 17 17 35 21 86 21 35 0 79 2 97 6 52 10 118 54 159 108 l38 49
550 1 551 0 39 -40 c33 -34 88 -69 120 -76 81 -19 109 -20 161 -8 78 18 113
36 159 83 l39 41 591 0 590 0 43 -45 c58 -62 112 -87 199 -93 72 -5 155 13
190 41 88 69 131 142 137 235 5 87 -52 212 -115 249 -24 14 -29 24 -30 58 0
22 -1 513 -1 1091 l-1 1052 41 48 c69 83 91 171 66 267 -28 109 -97 181 -199
211 -46 13 -102 21 -115 16 -3 -1 -17 -3 -32 -4 -39 -4 -88 -26 -131 -59 l-37
-29 -1020 0 c-920 -1 -1022 1 -1053 16 -19 8 -44 17 -55 19 -11 2 -26 7 -34
13 -77 55 -179 73 -271 47 -26 -8 -75 -32 -109 -54 -34 -21 -73 -39 -87 -40
-14 0 -172 0 -351 0 l-324 0 -20 27 c-11 14 -26 31 -33 38 -8 6 -24 22 -36 35
-12 13 -28 29 -35 35 -12 11 -32 29 -296 279 -242 230 -237 225 -236 282 0 3
-6 21 -14 40 -9 20 -15 38 -14 41 2 13 -62 93 -93 117 -41 31 -117 57 -165 57
-31 0 -48 12 -142 103 -59 57 -145 139 -191 183 -45 43 -117 113 -160 154 -42
41 -117 114 -167 161 -74 69 -93 92 -97 120 -21 151 -142 269 -277 269 -30 0
-42 7 -75 45 -84 95 -164 175 -177 175 -19 0 -203 180 -222 217 -9 18 -31 40
-49 49 -17 9 -41 25 -52 35 -11 10 -38 35 -60 55 -22 20 -100 95 -173 165 -73
71 -137 129 -141 129 -5 0 -12 12 -16 27 -3 14 -27 46 -53 70 -28 26 -41 43
-32 44 8 0 159 0 335 0 176 -1 340 -1 365 0 25 1 849 1 1832 2 l1787 0 39 -26
c41 -27 123 -54 157 -52 83 4 158 28 197 63 16 13 117 15 835 15 740 0 822 -2
857 -17 62 -26 155 -35 211 -21 101 26 191 113 214 207 25 106 3 204 -62 275
l-41 45 -1 275 0 275 35 38 c54 57 57 63 78 130 15 50 17 73 10 114 -12 69
-52 149 -91 182 l-31 26 -2 562 c0 423 2 566 11 581 11 19 28 88 29 125 2 37
-35 134 -69 180 -51 69 -140 113 -226 111 -66 -1 -161 -25 -181 -44 -10 -10
-319 -12 -1335 -12 l-1322 0 -43 44 c-24 23 -61 52 -82 63 -51 26 -174 33
-233 14z"/>
<path d="M15915 17710 c-2 -3 40 -67 93 -142 54 -76 131 -186 172 -244 41 -59
91 -130 111 -158 19 -28 146 -209 281 -401 l245 -351 -1 -597 c-1 -390 2 -598
9 -600 6 -2 152 -3 325 -3 l315 1 1 601 2 601 43 60 c24 33 50 69 57 79 7 11
62 89 123 174 61 85 118 166 127 181 9 14 138 197 285 406 148 210 270 385
270 389 1 4 -170 7 -381 7 -362 -1 -384 -2 -397 -19 -8 -11 -112 -164 -231
-341 -120 -178 -218 -322 -219 -320 -1 1 -36 52 -77 112 -41 61 -108 159 -149
219 -41 59 -78 116 -84 125 -5 9 -26 39 -45 66 -20 28 -51 74 -70 103 -30 46
-37 52 -69 53 -187 3 -734 3 -736 -1z"/>
<path d="M16221 11810 c-9 -7 -9 -2483 0 -2490 6 -4 1314 -5 1395 -1 20 1 20
5 20 274 l-1 272 -375 1 c-206 1 -380 2 -385 3 -7 1 -10 78 -10 214 l0 212
362 0 c314 0 362 2 365 15 3 13 2 470 -1 521 -1 15 -36 16 -348 17 -192 0
-355 1 -363 1 -13 1 -15 31 -15 206 -1 134 3 205 10 206 5 1 179 2 385 3 l375
1 0 275 0 274 -703 1 c-387 0 -707 -2 -711 -5z"/>
<path d="M16970 5598 c-120 -13 -148 -18 -189 -33 -23 -8 -45 -15 -49 -16 -4
-1 -18 -6 -32 -11 -268 -100 -446 -330 -486 -628 -7 -53 -8 -209 -1 -260 23
-170 117 -320 258 -415 87 -58 189 -103 399 -175 246 -83 325 -126 365 -194
82 -142 -18 -316 -197 -342 -198 -28 -412 45 -610 208 -25 21 -48 35 -51 31
-12 -21 -69 -128 -114 -213 -28 -52 -72 -135 -98 -185 -26 -49 -52 -95 -57
-102 -7 -9 9 -25 59 -57 128 -82 317 -164 453 -196 25 -6 54 -13 65 -15 11 -3
40 -8 65 -11 25 -3 59 -8 75 -10 36 -6 292 -7 320 0 11 2 41 7 67 10 68 9 206
51 275 82 96 45 191 113 260 188 78 85 153 230 179 351 18 83 25 288 11 355
-15 75 -17 84 -28 119 -6 20 -18 48 -26 63 -7 15 -14 31 -14 35 -4 25 -113
152 -172 200 -88 71 -242 144 -427 202 -236 74 -298 105 -351 171 -72 90 -26
225 96 280 43 20 130 38 161 34 28 -3 118 -17 124 -19 3 -1 19 -5 35 -10 45
-12 144 -63 199 -102 26 -19 52 -31 56 -26 5 4 48 87 97 183 49 96 93 182 98
190 5 8 10 17 10 20 1 3 11 24 23 47 12 23 22 46 22 51 0 22 -337 151 -432
166 -21 3 -57 10 -80 15 -41 9 -148 20 -248 24 -25 2 -74 -1 -110 -5z"/>
</g>
</svg>
