<svg viewBox="80 360 3160 1719.9999999999998" xmlns="http://www.w3.org/2000/svg" xmlns:xlink="http://www.w3.org/1999/xlink" xmlns:blush="http://design.blush" overflow="visible" width="3160px" height="1719.9999999999998px"><defs><polygon id="masterscenesteamwork-path-1" points="0.354636271 0.4782 167.3115 0.4782 167.3115 15 0.354636271 15"/></defs><g id="Master/Scenes/Teamwork" stroke="none" stroke-width="1" fill="none" fill-rule="evenodd" blush:i="0"><g id="Background" transform="translate(-1.000000, 0.000000)" blush:i="0.0"><g id="Floor" transform="translate(210.875000, 2053.250000)" fill="#090E2B" fill-rule="nonzero" blush:i="0.0.0"><path d="M2990.625,-2.25 C2992.558,-2.25 2994.125,-0.682996624 2994.125,1.25 C2994.125,3.1185634 2992.66072,4.64512645 2990.81704,4.74482114 L2990.625,4.75 L2116.625,4.75 C2114.692,4.75 2113.125,3.18299662 2113.125,1.25 C2113.125,-0.618563404 2114.58928,-2.14512645 2116.43296,-2.24482114 L2116.625,-2.25 L2990.625,-2.25 Z" id="Path-4-Copy-2" blush:i="0.0.0.0"/><path d="M1963.625,-2.25 C1965.558,-2.25 1967.125,-0.682996624 1967.125,1.25 C1967.125,3.1185634 1965.66072,4.64512645 1963.81704,4.74482114 L1963.625,4.75 L1474.625,4.75 C1472.692,4.75 1471.125,3.18299662 1471.125,1.25 C1471.125,-0.618563404 1472.58928,-2.14512645 1474.43296,-2.24482114 L1474.625,-2.25 L1963.625,-2.25 Z" id="Path-4-Copy-3" blush:i="0.0.0.1"/><path d="M882.625,-2.25 C884.557997,-2.25 886.125,-0.682996624 886.125,1.25 C886.125,3.1185634 884.660722,4.64512645 882.817035,4.74482114 L882.625,4.75 L0.625,4.75 C-1.30799662,4.75 -2.875,3.18299662 -2.875,1.25 C-2.875,-0.618563404 -1.4107224,-2.14512645 0.432964797,-2.24482114 L0.625,-2.25 L882.625,-2.25 Z" id="Path-4-Copy" blush:i="0.0.0.2"/></g><g id="Medium Plants" transform="translate(0.000000, 1255.000000) scale(1 1)" blush:width="845" blush:height="800" blush:component="Medium Plants" blush:i="0.0.1" blush:value="Plant 4"><defs blush:i="0.0.1.0"><polygon id="medium-plantsplant-4-path-1" points="0.885 0.4042 225.003 0.4042 225.003 229 0.885 229" blush:i="0.0.1.0.0"/></defs><g id="Medium Plants/Plant 4" stroke="none" stroke-width="1" fill="none" fill-rule="evenodd" blush:i="0.0.1.1"><g id="Group-16" transform="translate(94.000000, 144.000000)" blush:i="0.0.1.1.0"><path d="M662.512,98.475 C662.512,98.475 654.898,157.099 541.284,228.111 C510.266,247.427 495.952,267.763 485.27,286.623 C475.046,289.917 459.708,294.121 450.39,293.439 C450.39,293.439 464.366,297.417 479.476,297.417 C464.82,325.253 450.172,348.431 395.524,357.747 C395.524,357.747 337.882,323.167 382.904,223.567 C394.72,233.791 410.058,253.105 410.058,253.105 C408.24,238.223 394.606,221.181 387.79,213.453 C387.902,213.341 387.902,213.227 388.016,213.113 C421.08,151.081 484.704,148.921 545.942,145.173 C545.26,153.465 543.216,165.851 537.876,175.393 C537.876,175.393 554.122,163.123 559.122,144.263 C569.232,143.581 579.232,142.673 589.002,141.309 C617.178,137.445 647.174,121.881 662.512,98.475" id="Fill-1" fill="#009BA0" blush:i="0.0.1.1.0.0"/><path d="M10.3910291,113.374429 C25.9612131,111.077316 44.3658046,110.707752 64.7231199,113.490176 C92.7811,117.325122 121.021718,126.762182 148.555346,143.024165 C148.887306,143.220228 149.073691,143.586985 149.043724,143.964048 L149.025625,144.089897 L141.939,177.971 L157.743907,149.967727 C158.008197,149.499404 158.589421,149.329819 159.058442,149.562859 L159.164491,149.623832 C168.811192,155.971576 178.331005,163.262123 187.817736,171.593001 C223.39881,202.762455 245.340792,234.773338 256.182175,266.376895 C263.611965,288.035365 265.047051,306.790526 263.048678,321.394825 C262.965152,322.005241 262.878548,322.576963 262.790336,323.109279 L262.656999,323.878111 L262.522354,324.587303 L262.387427,325.234372 L262.270923,325.733668 L262.231693,325.848056 L262.19283,325.931313 L262.135104,326.027965 L262.067638,326.116488 L261.991346,326.196343 L261.937861,326.243242 L261.839616,326.313749 L261.734763,326.371215 L261.723,326.375 C261.685299,326.393589 261.651094,326.406878 261.616178,326.418272 L261.510483,326.446248 L261.39938,326.463179 L261.286874,326.467227 L261.15729,326.45616 L261.040332,326.431323 L260.925944,326.392093 L260.842687,326.35323 L260.746035,326.295504 L260.710128,326.269686 C256.52596,323.158633 252.280858,320.451042 247.848299,318.035552 L246.822015,317.483266 L245.861482,316.978041 C245.701612,316.894826 245.541821,316.812091 245.382062,316.729817 L244.423531,316.241522 L243.46357,315.763265 C243.303334,315.684336 243.142946,315.605784 242.982361,315.527589 L242.016105,315.062517 L241.042887,314.604988 L240.060495,314.154002 C239.895875,314.079328 239.730781,314.004885 239.565167,313.930652 L238.564865,313.48761 C238.396984,313.414134 238.22849,313.340828 238.059338,313.267669 L237.036148,312.830324 L235.994935,312.395529 L234.933485,311.962285 C234.754768,311.890152 234.575115,311.818041 234.394481,311.745933 L233.298528,311.313144 C233.113784,311.240962 232.927966,311.16874 232.741028,311.096458 L231.605595,310.661878 L230.441076,310.224855 L229.245259,309.784392 L228.015931,309.339488 L226.104266,308.661626 L224.781482,308.201256 L223.417444,307.732952 L221.289196,307.013436 L219.812343,306.520928 L206.810764,302.22715 L202.409619,300.749307 L199.321756,299.691506 L196.319463,298.634097 L194.165491,297.849018 L192.409498,297.187179 L190.967544,296.62652 L189.08907,295.871239 L188.094412,295.46009 L187.031034,295.012617 L185.945089,294.548128 L184.825843,294.062648 L183.662562,293.5522 L181.811596,292.731019 L181.160962,292.440501 C165.668155,285.513952 150.417057,276.554523 133.881881,264.18801 C133.381817,263.814016 133.349536,263.089033 133.784048,262.669558 L133.884302,262.584585 L154.071,247.581 L128.318251,259.139532 C128.025678,259.270838 127.690765,259.252896 127.41632,259.097547 L127.302702,259.02259 L126.20091,258.173175 L124.740219,257.019217 L123.435516,255.968337 L121.948112,254.755968 C114.317692,248.488973 106.440774,241.063179 98.5597118,232.878472 L96.8083948,231.047319 C93.8897479,227.975117 90.972995,224.802876 88.070449,221.550911 L86.3307248,219.590328 C86.0410878,219.262024 85.7516174,218.932963 85.462326,218.603166 L83.7288245,216.615711 C83.4402984,216.28305 83.1519759,215.949693 82.8638695,215.615661 L81.1379203,213.603528 L79.417745,211.576162 L77.7039343,209.534539 C77.4188625,209.193134 77.1340804,208.851176 76.8496005,208.508685 L75.1464452,206.447503 C74.8632231,206.102961 74.5803277,205.757926 74.2977714,205.412419 L72.6066012,203.333873 C72.3254505,202.986559 72.0446635,202.638813 71.7642524,202.290656 L70.0863971,200.19694 L68.4181571,198.094331 C68.1409512,197.743209 67.8641706,197.391757 67.5878275,197.039995 L65.9351187,194.925873 C65.3860317,194.220035 64.8387936,193.513121 64.2935028,192.805294 L62.6635708,190.679234 L61.0459137,188.548669 C60.7773599,188.193253 60.5093422,187.837691 60.241873,187.482001 L58.6437364,185.346505 C58.37851,184.99039 58.1138565,184.634188 57.8497884,184.277921 L56.2725023,182.139689 C55.7491472,181.42679 55.228232,180.71379 54.7098551,180.000852 L53.162438,177.862384 L51.6308419,175.725263 L50.1156579,173.590461 L48.7570018,171.686355 L47.4092365,169.813079 C47.1855176,169.503427 46.9622533,169.195054 46.7394439,168.887957 L45.4080508,167.060658 L44.0875961,165.263833 L42.7780991,163.497338 L41.4795787,161.761033 L40.1920541,160.054772 L38.9155442,158.378416 L37.6500681,156.73182 L36.3956449,155.114842 L35.1522937,153.52734 L33.9200334,151.969172 L32.6988832,150.440194 C32.4962851,150.187789 32.2941507,149.936594 32.0924804,149.686607 L30.888031,148.201148 L29.6947393,146.744523 C29.4967882,146.504147 29.2993028,146.264966 29.1022835,146.026978 L27.925764,144.613338 L26.7604499,143.228175 C26.5671658,142.99968 26.3743493,142.772365 26.1820008,142.546228 L25.0335304,141.203515 L23.896313,139.888924 L22.7703676,138.602312 L21.6557133,137.343536 L20.5523691,136.112454 L19.4603542,134.908924 L18.3796874,133.732803 L17.310388,132.583948 C17.1331198,132.394736 16.956326,132.206655 16.780007,132.0197 L15.7277942,130.911478 L14.6869965,129.830165 L13.6576327,128.77562 C13.4870259,128.602086 13.3168964,128.42966 13.1472445,128.258341 L12.1115509,127.220503 C11.7708102,126.88174 11.4345633,126.550135 11.1028205,126.225611 L10.1211146,125.273206 C9.79839023,124.962768 9.48018011,124.659334 9.16649449,124.362829 L8.23902135,123.494021 L7.3387565,122.666324 C7.19098312,122.531774 7.04434597,122.398919 6.89884633,122.267748 L6.0395088,121.500855 L5.20753274,120.773924 L4.40297942,120.086498 C4.27117583,119.975193 4.14051741,119.865515 4.01100544,119.757455 L3.28328667,119.157441 L2.63493837,118.636079 C2.53098592,118.553585 2.42908819,118.473276 2.32924806,118.395131 L1.7549214,117.952054 C1.66332316,117.882478 1.57378826,117.815022 1.4863196,117.749665 L0.960618641,117.363961 L0.574456463,117.092618 L0.458066013,117.015105 C-0.270580867,116.544264 -0.0950827257,115.432463 0.74316699,115.208957 L1.39498615,115.046932 L2.25696813,114.847912 L2.91069485,114.704838 L3.26106716,114.630479 C3.77113547,114.523314 4.30265292,114.416183 4.85530049,114.309527 L5.98867462,114.096981 L7.17782865,113.886491 L8.42219547,113.678844 L9.72120796,113.474829 C9.94223234,113.441173 10.16551,113.407701 10.3910291,113.374429 Z" id="Fill-3" fill="#017C7F" fill-rule="nonzero" blush:i="0.0.1.1.0.1"/><path d="M331.4778,356.7582 C331.4778,356.7582 277.8958,340.8782 240.0318,272.3862 C252.9298,268.6422 261.2518,259.9882 261.2518,259.9882 C252.0978,262.5682 235.4538,263.6502 235.4538,263.6502 C156.6878,164.7222 196.4138,0.0002 196.4138,0.0002 C205.1518,21.7202 248.5858,52.7902 283.7858,98.4742 C278.9598,102.7202 261.9898,119.9182 257.7458,126.6582 C257.7458,126.6582 276.8158,112.0302 286.9678,107.1182 C319.2578,149.3922 343.6278,201.9702 352.9478,243.4142 C373.2538,334.2902 331.4778,356.7582 331.4778,356.7582" id="Fill-5" fill="#009BA0" blush:i="0.0.1.1.0.2"/><path d="M213.221,60.438 C226.283,96.12 240.029,131.57 255.003,166.488 C262.539,183.92 270.331,201.262 279.167,218.048 C280.291,220.136 281.347,222.262 282.525,224.314 L286.103,230.45 C288.467,234.544 290.993,238.608 293.429,242.688 C298.161,250.948 302.817,259.266 306.883,267.89 C315.213,285.026 321.729,303.09 326.015,321.68 C328.191,330.966 329.851,340.356 331.375,349.74 C332.161,354.422 332.873,359.132 333.519,363.866 C334.091,368.594 334.659,373.322 335.121,378.058 C337.053,396.988 338.417,415.954 339.741,434.92 C341.031,453.89 342.175,472.864 343.191,491.852 C343.229,492.542 342.699,493.13 342.011,493.167922 C341.321,493.204 340.733,492.674 340.695,491.984 L340.695,491.978 C339.745,473.004 338.665,454.032 337.443,435.072 C336.185,416.118 334.887,397.158 333.023,378.268 C332.579,373.544 332.031,368.834 331.477,364.126 C330.853,359.442 330.163,354.754 329.391,350.06 C327.903,340.684 326.283,331.34 324.153,322.112 C319.963,303.64 313.561,285.704 305.337,268.63 C301.325,260.042 296.717,251.744 292.033,243.502 C289.611,239.416 287.133,235.398 284.759,231.256 L281.177,225.064 C279.997,222.994 278.945,220.858 277.825,218.758 C269.013,201.874 261.271,184.486 253.789,167.008 C238.919,132.004 225.293,96.5 212.347,60.75 C212.259,60.51 212.385,60.244 212.625,60.156 C212.867,60.068 213.135,60.196 213.221,60.438" id="Fill-7" fill="#000" blush:i="0.0.1.1.0.3"/><path d="M58.6878,139.4418 L153.4198,205.0718 C169.2218,216.0298 184.2658,228.1018 198.3638,241.1918 C201.9418,244.4078 205.3158,247.8418 208.7858,251.1738 C212.1118,254.6498 215.5678,258.0038 218.7678,261.6018 C225.3598,268.6178 231.4738,276.0698 237.3678,283.6838 C243.1938,291.3578 248.5438,299.3918 253.4298,307.7118 C258.1358,316.1338 262.3558,324.8458 265.4158,334.0538 C266.1898,336.3418 266.7758,338.6818 267.4658,340.9938 C268.0938,343.3198 268.8798,345.6138 269.3718,347.9698 C270.4218,352.6678 271.6798,357.3278 272.5558,362.0598 C274.4938,371.4878 276.1238,380.9718 277.5998,390.4738 C283.3618,428.5118 286.8678,466.8138 289.3598,505.1878 C289.4038,505.8758 288.8818,506.4718 288.1938,506.518389 C287.5038,506.5598 286.9098,506.0378 286.8638,505.3478 L286.8638,505.3438 L286.8638,505.3238 C284.5258,467.0358 281.1658,428.7338 275.5658,390.7818 C274.1318,381.3018 272.5418,371.8418 270.6478,362.4498 C269.7938,357.7338 268.5618,353.1058 267.5358,348.4278 C267.0558,346.0778 266.2858,343.8158 265.6738,341.5038 C264.9998,339.2138 264.4258,336.8858 263.6718,334.6258 C260.7018,325.5678 256.5598,316.9238 251.9298,308.5658 C247.1198,300.3038 241.8418,292.3078 236.0798,284.6578 C230.2478,277.0678 224.1958,269.6298 217.6578,262.6198 C214.4898,259.0258 211.0598,255.6718 207.7598,252.1978 C204.3158,248.8658 200.9678,245.4318 197.4158,242.2138 C183.4138,229.1118 168.4698,217.0238 152.7458,206.0318 L58.2718,140.0418 C58.1058,139.9278 58.0638,139.6998 58.1798,139.5338 C58.2938,139.3678 58.5218,139.3258 58.6878,139.4418" id="Fill-9" fill="#000" blush:i="0.0.1.1.0.4"/><path d="M613.0178,154.895 C580.8438,175.235 548.4818,195.275 516.1918,215.435 L492.0098,230.555 C484.1098,235.679 476.6958,241.627 469.5438,247.821 C462.3498,253.985 455.6518,260.705 449.0918,267.533 C445.9438,271.073 442.6298,274.465 439.6618,278.159 L435.1058,283.605 L430.7858,289.241 C424.9858,296.729 419.8638,304.697 415.0098,312.811 C413.8498,314.867 412.7758,316.973 411.6538,319.053 C410.5878,321.159 409.3378,323.179 408.4198,325.355 L405.5198,331.817 L404.0758,335.049 L402.8718,338.375 L400.4638,345.027 C399.6238,347.235 399.1718,349.559 398.5058,351.819 C397.9038,354.099 397.2478,356.353 396.6858,358.655 L395.1518,365.619 L389.1638,393.517 C381.4018,430.763 373.9698,468.091 366.9418,505.483 C366.8158,506.161 366.1658,506.611 365.4858,506.487 C364.8078,506.361 364.3578,505.707 364.4818,505.027 C371.4418,467.595 378.6498,430.215 386.5218,392.961 L392.5418,365.043 L394.0878,358.073 C394.6538,355.753 395.3278,353.437 395.9418,351.117 C396.6218,348.817 397.0918,346.445 397.9438,344.203 L400.3998,337.437 L401.6298,334.055 L403.0978,330.773 L406.0518,324.217 C406.9858,322.007 408.2518,319.963 409.3358,317.829 C410.4758,315.721 411.5658,313.587 412.7438,311.505 C417.6658,303.293 422.8598,295.237 428.7238,287.677 L433.0958,281.991 L437.6998,276.495 C440.7018,272.771 444.0478,269.349 447.2258,265.781 C453.8518,258.899 460.6138,252.127 467.8818,245.911 C475.1158,239.665 482.5858,233.675 490.6638,228.445 C498.7658,223.347 506.8838,218.467 514.9938,213.467 C547.4558,193.603 579.8478,173.621 612.4238,153.939 C612.6898,153.777 613.0358,153.861 613.1978,154.127 C613.3578,154.389 613.2758,154.731 613.0178,154.895" id="Fill-11" fill="#000" blush:i="0.0.1.1.0.5"/><g id="Group-15" transform="translate(216.000000, 426.090000)" blush:i="0.0.1.1.0.6"><mask id="medium-plantsplant-4-mask-2" fill="#fff" blush:i="0.0.1.1.0.6.0"><use xlink:href="#medium-plantsplant-4-path-1" blush:i="0.0.1.1.0.6.0.0"/></mask><g id="Clip-14" blush:i="0.0.1.1.0.6.1"/><path d="M73.761,229.0002 L152.127,229.0002 C180.031,229.0002 203.369,225.7942 206.035,198.0182 L225.003,0.4042 L0.885,0.4042 L19.851,198.0182 C22.517,225.7942 45.855,229.0002 73.761,229.0002" id="Fill-13" fill="#F0F1FF" mask="url(#medium-plantsplant-4-mask-2)" blush:i="0.0.1.1.0.6.2"/></g></g></g></g><g id="UI Elements" transform="translate(1051.000000, 341.000000) scale(1 1)" blush:width="1101" blush:height="811" blush:component="UI Elements" blush:i="0.0.2" blush:value="Chat"><g id="UI Elements/Chat" stroke="none" stroke-width="1" fill="none" fill-rule="evenodd" blush:i="0.0.2.0"><g id="Interface--Box-1" transform="translate(74.000000, 54.000000)" blush:i="0.0.2.0.0"><rect id="Rectangle-Copy-4" fill="#090E2B" x="48" y="36" width="903" height="664" rx="64" blush:i="0.0.2.0.0.0"/><rect id="Rectangle" fill="#FFF" x="3" y="3" width="903" height="664" rx="64" blush:i="0.0.2.0.0.1"/><path d="M842,0 L67,0 C29.9969218,0 0,29.9969218 0,67 L0,603 C0,640.003078 29.9969218,670 67,670 L842,670 C879.003078,670 909,640.003078 909,603 L909,67 C909,29.9969218 879.003078,0 842,0 Z M67,6 L842,6 C875.68937,6 903,33.3106303 903,67 L903,603 C903,636.68937 875.68937,664 842,664 L67,664 C33.3106303,664 6,636.68937 6,603 L6,67 C6,33.3106303 33.3106303,6 67,6 Z" id="Rectangle-Copy" fill="#090E2B" fill-rule="nonzero" blush:i="0.0.2.0.0.2"/><path d="M81.6784,559.808 L800.7568,559.808 C807.384217,559.808 812.7568,554.435417 812.7568,547.808 L812.7568,271.1616 C812.7568,264.534183 807.384217,259.1616 800.7568,259.1616 L81.6784,259.1616 C75.050983,259.1616 69.6784,264.534183 69.6784,271.1616 L69.6784,547.808 C69.6784,554.435417 75.050983,559.808 81.6784,559.808 Z" id="Stroke-1" fill="#C7D2F2" fill-rule="nonzero" blush:i="0.0.2.0.0.3"/><rect id="Rectangle" fill="#FFF" x="124" y="324" width="625" height="22" rx="8.5" blush:i="0.0.2.0.0.4"/><rect id="Rectangle-Copy-2" fill="#FFF" x="124" y="397" width="625" height="22" rx="8.5" blush:i="0.0.2.0.0.5"/><rect id="Rectangle-Copy-3" fill="#FFF" x="124" y="470" width="491" height="22" rx="8.5" blush:i="0.0.2.0.0.6"/><path d="M81.6784,199.104 L166.664,199.104 C173.291417,199.104 178.664,193.731417 178.664,187.104 L178.664,102.1248 C178.664,95.497383 173.291417,90.1248 166.664,90.1248 L81.6784,90.1248 C75.050983,90.1248 69.6784,95.497383 69.6784,102.1248 L69.6784,187.104 C69.6784,193.731417 75.050983,199.104 81.6784,199.104 Z" id="Stroke-2" fill="#FFB201" blush:i="0.0.2.0.0.7"/><path d="M313.138385,84.8967885 C329.447729,79.5153053 348.586818,83.2415764 358.898207,95.1494108 C364.641993,101.78247 365.553157,109.836021 361.675317,118.16689 C358.288646,125.442569 351.252764,133.056341 340.595642,141.27597 C336.31135,144.580361 331.408948,148.004801 325.887118,151.550657 L325.349,151.894 L325.543643,152.04445 C341.792399,164.438624 357.091439,166.862182 376.260449,162.057646 L377.968343,161.616032 C383.787581,160.074404 388.340217,158.490339 398.373445,154.551317 L408.291943,150.622394 C426.652824,143.383698 437.167182,140.154312 449.947188,138.648183 C467.698785,136.55615 484.762574,139.44633 502.330447,148.436475 C578.210251,187.267035 616.68251,193.20019 673.005729,172.413466 C676.114478,171.266146 679.564703,172.8562 680.712023,175.964949 C681.859342,179.073698 680.269289,182.523924 677.160539,183.671243 C645.644812,195.30248 619.114696,198.641981 591.124925,194.325425 L589.544806,194.074065 C563.69996,189.837339 536.014264,179.153744 496.863807,159.118977 C481.451903,151.232123 466.781412,148.747308 451.351673,150.565709 L450.342491,150.689479 C439.117599,152.120689 429.287548,155.218498 411.838757,162.123665 L403.055294,165.605084 C391.669618,170.080433 386.906843,171.710504 379.851947,173.526373 C357.027478,179.401193 337.796987,176.483508 318.265861,161.585618 C317.0727,160.675502 315.864585,159.672344 314.654208,158.592274 L314.545,158.494 L314.017166,158.804659 L312.295102,159.804812 C293.187916,170.838945 268.652234,182.944456 238.653973,196.156684 L237.200946,196.795635 C234.166794,198.12777 230.627219,196.748013 229.295083,193.713861 C227.962948,190.679709 229.342705,187.140134 232.376857,185.807998 L235.096589,184.610328 C263.492115,172.068188 286.795242,160.578237 304.975046,150.172539 L305.979,149.594 L305.732259,149.301723 C299.306434,141.630328 293.812924,132.801442 291.510503,125.686128 L291.361761,125.214344 C285.517654,106.168413 295.144491,90.834111 313.138385,84.8967885 Z M349.826646,103.004777 C342.950235,95.0637364 328.907966,92.3297871 316.898536,96.2924571 C304.724978,100.309283 299.047137,109.353346 302.833845,121.694218 C304.636454,127.568918 309.846003,135.708997 315.788395,142.599086 L316.432,143.336 L316.802823,143.104213 C322.845916,139.317522 328.138527,135.690524 332.678924,132.22501 L333.266883,131.773903 C350.827935,118.229407 355.086995,109.079552 349.826646,103.004777 Z" id="Path-8" fill="#FFB201" fill-rule="nonzero" blush:i="0.0.2.0.0.8"/></g></g></g></g><g transform="translate(249.000000, 562.000000) scale(1 1)" blush:has-customizable-colors="true" blush:width="1110" blush:height="1500" id="Master/Character/Standing" blush:component="Master/Character/Standing" blush:i="0.1" blush:value="Standing"><g id="Master/Character/Standing" stroke="none" stroke-width="1" fill="none" fill-rule="evenodd" blush:has-customizable-colors="true" blush:i="0.1.0"><g id="Lower Body/Standing" transform="translate(-64.000000, 629.000000) scale(1 1)" blush:width="1110" blush:height="871" blush:component="Lower Body/Standing" blush:i="0.1.0.0" blush:value="Skirt 3"><g id="Lower Body/Standing/Skirt 3" stroke="none" stroke-width="1" fill="none" fill-rule="evenodd" blush:i="0.1.0.0.0"><g id="Group" transform="translate(420.000000, 0.000000)" blush:i="0.1.0.0.0.0"><path d="M97,224.870199 C97,224.870199 130.917774,340.170164 124.313813,386.112835 C117.525006,433.336224 110.63519,485.838515 111.89174,534.993111 C113.016979,579.041051 123.741093,677.537689 115.657351,755.762729 C114.719989,764.832108 111.151345,784.892955 109.663484,793.301711 C101.55146,818.370929 146.085268,847.894286 178.16165,860.064134 C197.405863,867.366448 212.443056,851.657405 212.443056,851.657405 C212.443056,851.657405 161.158824,799.250356 162.634564,781.196709 C166.22543,737.266303 221.734864,506.514389 237.025589,422.211011 C243.360866,387.276018 265,215.317511 265,215.317511 C265,215.317511 153.543765,173.390252 131.687462,175.047888 C114.077572,176.383319 97,224.870199 97,224.870199" id="leg-2" fill="#ca8f67" blush:color="Skin-500" blush:i="0.1.0.0.0.0.0"/><path d="M206.293461,845.441838 C206.293461,845.441838 209.974474,852.68751 198.517713,852.984721 C190.350497,853.19774 176.407357,852.918787 166.838139,846.131612 C157.26791,839.343423 108.945382,798.540237 108.945382,793.624581 C108.945382,790.66261 104.698915,798.868894 102.945908,804.938906 C95.0892357,832.13934 113.54589,864.680451 113.779557,871 L129.648679,871 C129.648679,871 133.273045,846.778782 134.206701,844.671928 C135.141369,842.566088 163.575906,871 179.023213,871 L234.312253,871 C242.154763,871 232.840454,857.345514 206.293461,845.441838" id="shoe-2" fill="#090E2B" blush:i="0.1.0.0.0.0.1"/><path d="M64,211.537999 C70.2638572,284.893503 96.5997931,348.947298 94.0954649,395.268509 C91.5091438,443.147094 73.3876877,481.52145 75.0042649,558.340033 C76.1643134,613.478932 93.6885369,733.445249 85.6906805,774.224522 C83.9364361,783.167771 74.492062,785.423835 72.8471415,798.256467 C69.4996018,824.384485 110.886813,847.902031 143.032102,860.065336 C162.31968,867.363117 177.389176,851.663826 177.389176,851.663826 C177.389176,851.663826 123.470202,801.593983 126.061584,781.667104 C131.417445,740.482793 171.769116,541.538025 183.069972,431.235925 C190.062656,362.981881 200,213.17638 200,213.17638 C200,213.17638 85.6096998,182.401557 64,211.537999" id="leg-1" fill="#ca8f67" blush:color="Skin-500" blush:i="0.1.0.0.0.0.2"/><path d="M173.12093,846.845385 C157.180506,833.576912 124.357788,803.444397 124,781.962108 C126.986663,755.742091 131.607327,729.72661 135.843701,703.693915 C148.249057,630.364948 172.984339,503.833496 181.38777,431.450252 C189.276435,363.50097 186.744397,294.428768 190.672929,226.104842 C190.700452,225.466935 191.244779,224.97281 191.887982,225 C192.528127,225.030526 193.024545,225.569203 192.999061,226.205085 C189.554714,290.228706 191.946084,368.040238 184.460058,431.906913 C176.047453,503.670476 151.353964,631.432177 139.105586,704.23158 C134.915083,730.555889 130.0457,756.841722 127.303678,783.357404 C129.439193,800.593052 148.15222,819.123754 159.56474,831.880888 C164.170114,836.726959 168.968143,841.402921 173.954749,845.854097 C174.590817,846.339109 173.73865,847.3952 173.12093,846.845385" id="Fill-8" fill="#090E2B" blush:i="0.1.0.0.0.0.3"/><path d="M173.41073,845.721798 C173.41073,845.721798 175.626051,852.63712 164.101699,852.935133 C155.885574,853.148726 141.858936,852.869021 132.231396,846.063547 C122.604873,839.258072 73.6500362,797.510847 73.6500362,792.581938 C73.6500362,789.611981 69.7210717,798.673402 67.957566,804.760797 C60.0538448,832.033549 78.621026,864.662396 78.8550747,871 L94.8202455,871 C94.8202455,871 98.467334,846.713479 99.4055639,844.599927 C100.344811,842.488409 128.950644,871 144.490457,871 L200.110593,871 C208.000068,871 199.936583,856.630289 173.41073,845.721798" id="shoe-1" fill="#090E2B" blush:i="0.1.0.0.0.0.4"/><path d="M265.550356,0 C265.550356,0 311.015243,105.944161 312,222.987995 C229.599188,283.926226 129.0922,255.267197 129.0922,255.267197 C129.0922,255.267197 125.373804,218.531542 120.303265,208.637751 C114.517183,215.575741 102.437965,251.938256 102.437965,251.938256 C102.437965,251.938256 7.47719547,241.656155 0.388561787,231.619782 C-6.7000719,221.583408 85.5492595,0 85.5492595,0 L265.550356,0 Z" id="skirt" fill="#090E2B" blush:i="0.1.0.0.0.0.5"/></g></g></g><g id="Upper Body/Standing" transform="translate(69.000000, -172.000000) scale(1 1)" blush:width="906" blush:height="1041" blush:component="Upper Body/Standing" blush:i="0.1.0.1" blush:value="Hoodie 2"><g id="Upper Body/Standing/Hoodie 2" stroke="none" stroke-width="1" fill="none" fill-rule="evenodd" blush:i="0.1.0.1.0"><path d="M443.380719,413 C443.380719,413 449.694106,466.827791 444.264893,471.264679 C438.83568,475.701567 418,478.586391 418,478.586391 C418,478.586391 468.091547,512.340032 480.52106,520.769221 C483.174585,522.568498 511.617372,531.560896 513.937454,524.052777 C520.717462,502.115552 522,486.278817 522,486.278817 C522,486.278817 501.317512,477.147539 495.495778,472.590035 C494.608599,453.567539 496.721583,432.889737 496.721583,432.889737 L443.380719,413 Z" id="Fill-1" fill="#ca8f67" blush:color="Skin-500" blush:i="0.1.0.1.0.0"/><path d="M396.565534,472 C413.669389,472.005997 515.032642,529.39509 515.032642,529.39509 C515.032642,529.39509 525.443858,508.388037 528.347871,486.85226 C528.347871,486.85226 567.36091,529.756901 571.735943,551.215718 C577.665052,580.294564 586.624262,614.926516 590.007607,700.174091 C600.219684,703.829186 617.486558,722.028624 619.933348,756.297843 C620.899477,769.829248 611.323081,808.219676 593.774217,805.863012 C589.802464,811.632006 582.770591,815.376055 582.26424,820.068609 C581.217514,829.783547 590.166717,830.85099 590.144702,839.533466 C590.131693,844.463896 582.27925,851.961989 561.635942,856.605569 C540.991634,861.251148 361.605304,860.177707 344.726605,843.971153 C340.739842,840.145147 350.412546,827.181902 350.444568,823.917604 C350.520621,815.753858 342.404996,812.269674 339.744152,805.744074 C338.09771,801.703315 337.757073,794.674385 337.945508,787.662653 C307.85051,776.458141 293.226724,756.137293 296.434534,722.329545 C297.306139,713.140333 303.582489,645.580541 303.582489,632.248489 C303.582489,618.917436 313.586422,554.26313 317.156897,542.503259 C327.504815,508.413269 366.459826,496.15066 377.737431,493.272734 C383.529023,481.31241 390.162557,471.998129 396.565534,472 Z" id="Combined-Shape" fill="#3615F6" blush:i="0.1.0.1.0.1"/><path d="M369.661542,456.920325 C376.291412,449.92451 390.175387,430.81835 405.670387,430.246832 C420.152629,429.714487 438.417232,430.160452 445.099039,430.488899 C446.825921,442.81419 446.208678,465.42579 445.070074,470.974231 C442.92071,473.320566 440.953122,473.351703 434.676819,474.855326 C474.237309,488.180019 482.74987,496.204366 490.283632,501.175262 C495.007839,504.292995 507.810141,518.282617 513.306401,524.164526 C509.526037,510.131713 513.906152,487.824047 515.582097,483.5 C502.649839,478.810801 494.867391,474.977579 494.431749,473.045205 C493.825593,470.356485 494.431749,442.733287 495.426815,443.579989 C496.421881,444.426691 527.245309,455.724056 538.305746,467.775139 C542.857165,472.733982 540.738763,481.250496 543.740082,493.806805 C546.574607,505.662025 525.457501,517.477069 517.748953,531.225629 C516.966912,532.620774 516.122947,537.747356 514.76661,536.907657 C493.67747,523.850141 434.62688,520.763545 394.491095,491.999845 C384.841927,490.142665 369.397865,494.856428 361.32876,498.242343 C359.183391,495.345583 358.141668,488.965479 359.863557,485.595636 C360.821382,483.722384 369.10023,476.06164 369.807363,474.993937 C370.939974,473.284407 360.314004,466.782768 369.661542,456.920325 Z" id="Fill-8" fill="#FFB201" blush:i="0.1.0.1.0.2"/><path d="M446.53339,456.435973 C438.008791,460.171259 429.100893,461.503115 419.816776,461.663213 C394.445247,463.781806 417.541257,468.217397 426.834476,471.291666 C429.223265,472.227697 432.801392,473.155871 434.980834,474.523086 C435.3702,474.76667 435.450096,475.013201 435.333792,474.99945 C429.469021,473.645004 423.429289,472.353418 417.326853,471.144337 C413.379586,470.068834 409.116781,469.605238 405.929032,466.730354 C403.130649,463.685551 407.271082,460.510116 410.202962,460.063218 C416.384282,458.433757 422.662692,458.923872 428.83491,458.544745 C434.877677,458.188208 440.922466,457.306198 446.914666,456.008719 C447.169524,455.937019 446.79735,456.327932 446.53339,456.435973" id="Fill-10" fill="#090E2B" blush:i="0.1.0.1.0.3"/><path d="M361.109954,498.558535 C369.872243,493.325327 385.631471,488.044222 395,492.948858 C388.05744,493.692216 380.664731,493.899131 373.717136,495.771897 C369.540925,496.716423 365.471461,497.840082 361.322441,498.988648 C361.059602,499.069115 360.870278,498.700309 361.109954,498.558535" id="Fill-12" fill="#000" blush:i="0.1.0.1.0.4"/><path d="M510.457505,460.986053 C520.806477,466.624031 520.233552,474.136998 516.650697,483.180587 C516.560399,483.477902 516.339325,484.23971 516.379803,483.925377 C517.483098,473.993846 517.508008,468.139638 507.02307,460.04005 C506.689901,459.78578 510.069327,460.818875 510.457505,460.986053" id="Fill-14" fill="#090E2B" blush:i="0.1.0.1.0.5"/><path d="M458.92513,711.308634 C458.582401,716.436369 458.460453,728.923149 458.093813,734.047886 C450.676326,728.142798 442.983859,722.59841 435.063238,717.391741 C421.131911,708.636025 406.841916,698.939092 390.162781,696.715941 C388.249877,691.196533 394.094199,673.798006 395.931385,662.703236 C401.09822,638.557322 403.144629,613.127477 397.644032,588.78073 C395.911459,581.658655 387.615231,557.403832 380.149921,556 C379.219373,556.465613 382.432455,557.747546 385.130447,563.977364 C399.810994,594.459007 398.084399,629.448899 392.526016,662.057773 C392.384541,668.465442 382.868836,697.945918 389.107695,699.615529 C411.601262,704.500465 436.074487,721.441373 458.033038,734.905172 C456.90024,750.630091 455.554233,766.330031 453.414171,781.952035 C452.338162,789.234977 451.432521,796.610841 449.799578,803.790868 C411.987828,806.032003 374.409214,797.929744 338.393802,787.007829 C338.018195,786.875939 337.839857,787.461452 338.183582,787.590345 C342.638059,789.385851 347.104492,791.188352 351.627715,792.834982 C360.69309,795.972372 369.934811,799.02783 379.359851,800.897275 C402.115447,806.24083 425.663104,810.058654 449.018475,806.994203 C447.988296,810.911944 446.699078,814.757745 444.990416,818.479648 C445.751593,824.808384 451.814106,809.444165 452.336169,807.689624 C460.954203,778.64079 461.247117,748.526841 460.920329,718.708646 C459.910712,710.551535 458.973948,710.233529 458.92513,711.308634 Z" id="Fill-16" fill="#090E2B" blush:i="0.1.0.1.0.6"/><path d="M595.043673,749.944081 C590.185046,733.103023 584.74062,716.954403 574.86364,700.360444 C574.806557,700.213373 581.044088,698.623269 589.007508,699.99235 C589.324024,700.046766 589.2821,699.956877 589.214569,699.88239 C588.454693,698.745119 582.732158,696.752559 578.586785,697.11088 C574.441413,697.469202 574.661197,700.204808 574.659148,700.138454 C574.080441,678.119621 570.891105,643.408158 569.476157,621.212655 C569.049585,612.704562 568.240191,601.966638 566.123237,593.753992 C562.482953,578.91274 557.913953,564.30505 552.548485,550.036727 C552.348623,549.464796 550.82728,547.584312 551.016205,548.083379 C555.628956,562.505415 559.97224,579.572506 562.38849,594.505587 C565.880618,624.614295 566.299236,655.173162 571.679618,685.077253 C571.815843,685.668148 574.487576,699.972272 574.553202,700.190864 C579.67627,712.459479 586.826402,732.265134 590.612855,749.944081 C594.04234,764.645595 594.857722,781.808403 593.325442,796.791391 C591.452704,806.983748 588.516447,809.206668 587.593212,810.646714 C587.329845,811.057509 584.926935,815.441158 592.787199,805.843951 C600.647463,796.246743 598.073272,760.445333 595.043673,749.944081 Z" id="Fill-18" fill="#090E2B" blush:i="0.1.0.1.0.7"/><path d="M486.645958,608.419964 C485.734021,609.423318 484.376924,610.005724 482.99919,610 C481.623422,609.977853 480.288927,609.391602 479.362249,608.411314 C478.433606,607.430065 477.956017,606.098988 478.003187,604.793859 C478.051339,602.14612 480.442227,599.893379 482.99919,600.003902 C484.260966,600.003902 485.502105,600.496929 486.432714,601.369578 C487.370202,602.237421 487.948024,603.483925 487.996176,604.793859 C488.048259,606.099949 487.56674,607.429104 486.645958,608.419964" id="Path" fill="#000" blush:i="0.1.0.1.0.8"/><path d="M488.876563,598.945214 C487.890122,597.877234 486.554338,597.120789 485.115568,596.766455 C486.402888,583.594368 485.255911,570.29886 483.105329,557.280053 C480.901234,544.09204 477.664254,530.798524 473.054133,518.212681 C473.886095,518.436628 474.306115,519.180133 474.943213,519.992316 C476.143702,521.524116 476.315345,517.982761 474.803879,516.756525 C472.455403,514.851479 467.462619,516.782403 468.047214,519.89776 C468.35819,521.554971 469.815134,518.749159 470.531995,518.573982 C470.902541,518.359988 471.301358,518.227611 471.702194,518.159929 C474.23241,527.849385 476.311306,537.93498 477.874264,547.83445 C480.571074,563.949703 481.500974,580.360567 481.924023,596.676876 C480.305533,596.979454 478.788009,597.782678 477.67839,598.955167 C476.252746,600.442178 475.494489,602.488559 475.548001,604.484179 C475.588387,606.483781 476.450639,608.439588 477.878303,609.820099 C479.281735,611.225493 481.283897,612.03469 483.271923,611.998858 C485.25995,612.003835 487.238889,611.193643 488.656456,609.811141 C490.092197,608.440583 490.95243,606.48179 490.996855,604.484179 C491.055416,602.486569 490.29413,600.443173 488.876563,598.945214" id="Path" fill="#090E2B" blush:i="0.1.0.1.0.9"/><path d="M544.645958,596.419964 C543.734021,597.423318 542.376924,598.005724 540.99919,598 C539.623422,597.976892 538.288927,597.391602 537.362249,596.411314 C536.433606,595.430065 535.956017,594.098988 536.003187,592.793859 C536.051339,590.14612 538.442227,587.893379 540.99919,588.003902 C542.260966,588.003902 543.502105,588.496929 544.432714,589.369578 C545.370202,590.237421 545.948024,591.483925 545.996176,592.793859 C546.048259,594.10091 545.56674,595.429104 544.645958,596.419964" id="Path" fill="#000" blush:i="0.1.0.1.0.10"/><path d="M545.893428,587.868392 C544.807645,586.674811 543.296165,585.864738 541.689527,585.572351 C542.290514,561.48344 538.422164,536.822772 528.33661,514.835645 C528.340616,514.836646 528.344623,514.835645 528.348629,514.836646 C528.758302,514.736514 530.565268,515.71481 530.148584,514.333981 C528.615067,511.227866 524.490296,514.147734 525.052219,516.97548 C525.817475,518.44042 526.513617,516.076289 527.471189,515.157071 C531.517831,526.576198 533.933797,538.545053 535.789844,550.494883 C537.463591,562.108268 538.30397,573.877859 538.933003,585.596383 C537.350405,585.909798 535.869975,586.713863 534.784193,587.877404 C533.369871,589.373386 532.617637,591.432113 532.670724,593.439773 C532.71079,595.451438 533.566194,597.419044 534.982518,598.807884 C536.374804,600.222758 538.361064,601.035836 540.333301,600.998786 C542.305538,601.004794 544.269763,600.189715 545.675069,598.798872 C547.099407,597.420046 547.952808,595.449435 547.99688,593.439773 C548.054976,591.430111 547.299736,589.374387 545.893428,587.868392" id="Path" fill="#090E2B" blush:i="0.1.0.1.0.11"/></g></g><g id="Head" transform="translate(399.000000, 26.000000) scale(1 1)" blush:width="300" blush:height="300" blush:component="Head" blush:i="0.1.0.2" blush:value="Hair Bun Dark"><g id="Head/Hair Bun Dark" stroke="none" stroke-width="1" fill="none" fill-rule="evenodd" blush:i="0.1.0.2.0"><path d="M199.344059,265.553095 C216.516924,263.335386 241.691505,222.379074 236.024106,172.148465 C230.356708,121.917856 241.691505,121.917856 230.01893,81.5710225 C220.329736,48.0798441 161.708955,79.0941821 138.1545,89.6041 C110.246649,102.056489 86.0355,150.8011 87.6185,184.7161 C87.6185,224.594598 145.237382,272.54045 199.344059,265.553095 Z" id="Fill-1" fill="#ca8f67" blush:color="Skin-500" blush:i="0.1.0.2.0.0"/><path d="M193.5844,33.9056 C150.2074,14.2296 105.6884,35.1006 105.6884,35.1006 C118.5984,-30.0504 38.0714,-33.9034 17.3444,29.3026 C3.2354,65.4986 37.2294,97.3536 54.9914,81.5726 C39.5924,101.0976 42.2994,153.2116 59.4064,183.8516 C66.4564,196.4786 78.6364,205.7256 88.9734,207.6486 C107.8404,211.1596 88.8364,193.3466 86.9744,187.8896 C87.7264,172.1066 106.4474,144.4096 109.9404,178.8516 C111.3964,187.5766 106.8344,222.2976 107.4114,230.4736 C107.8204,236.2766 108.1734,239.4086 111.7514,246.0656 C115.1854,252.4546 113.0344,265.5186 113.4164,266.9406 C113.9394,263.3896 115.1464,256.9646 113.9464,249.5446 C113.4484,246.4556 112.2384,243.3206 110.8584,239.9496 C107.9674,232.8816 114.1684,216.7296 117.1604,179.2596 C119.2104,153.5926 106.2734,140.1506 121.6944,130.4506 C153.1814,110.6466 206.1304,133.4336 236.4844,108.1216 C250.1884,96.6956 237.1654,53.6756 193.5844,33.9056" id="Fill-3" fill="#090E2B" blush:i="0.1.0.2.0.1"/><path d="M108.016,170.0277 C110.682,180.5817 111.718862,189.325045 102.418862,193.792045 C93.1178621,198.259045 76.839,190.9327 72.126,181.1207 C67.413,171.3077 69.907,156.1527 79.058,151.3867 C93.319,143.9607 104.57649,156.411576 108.016,170.0277 Z" id="Fill-6" fill="#ca8f67" blush:color="Skin-500" blush:i="0.1.0.2.0.2"/><path d="M107.0241,22.7615 C108.7201,24.7845 106.6701,28.7715 105.5911,26.3665 C100.2951,21.6835 83.5781,30.9485 79.3101,35.2825 C64.5022581,48.7512605 56.5310332,63.01493 54.9982454,81.52041 C55.0086551,81.4325177 55.1506358,81.1065033 55.2124,80.9273 C62.9104,58.6643 80.6224,35.9053 105.5624,33.7633 C106.4504,33.6903 106.6934,35.0523 105.8134,35.2673 C81.4394,41.4393 66.3594,61.2143 55.2544,81.0903 C55.1694,81.2413 55.0364,81.5563 55.0014,81.5446334 L54.9974988,81.5294302 C54.9966974,81.539119 54.9958978,81.5488089 54.9951,81.5585 C54.9901,81.6215 54.9741,81.4295 54.9711,81.3665 C53.7271,59.3915 68.2001,37.4115 86.1501,26.2935 C91.8931,22.7355 101.9861,16.7525 107.0241,22.7615 Z" id="Combined-Shape" fill="#FFB201" blush:i="0.1.0.2.0.3"/><path d="M100.3978,178.1312 C99.8758,174.3442 99.0018,170.9522 96.5408,168.0812 C92.8728,163.9912 87.4958,161.4252 82.0198,161.7142 C81.6068,161.7352 80.6908,162.3182 80.6278,162.7422 C80.5488,163.2702 81.4808,163.7792 82.0058,163.8082 C87.8878,164.5712 93.6318,167.8562 96.4468,173.1822 C93.1198,171.9562 85.4758,175.8292 86.0728,178.4382 C86.4988,180.3022 92.8178,174.3252 97.8648,176.1792 C98.4678,177.6342 99.0788,179.9952 99.5408,182.3572 C99.6238,182.7792 99.8948,183.2822 100.2708,183.0372 C100.8858,182.6372 100.5948,179.5582 100.3978,178.1312" id="Fill-12" fill="#090E2B" blush:i="0.1.0.2.0.4"/><path d="M132.3031,247.9544 C137.5441,250.6564 146.3971,255.2584 154.0611,258.6254 C156.5331,259.7114 159.0641,260.7364 161.6331,261.6154 C161.8811,261.6984 161.5831,262.6034 159.8031,262.1904 C154.5061,260.9634 149.3321,258.8404 143.9951,256.1334 C139.5371,253.8724 133.7531,250.3594 131.3071,248.4984 C129.3351,246.9994 129.8901,246.7114 132.3031,247.9544" id="Fill-14" fill="#000" blush:i="0.1.0.2.0.5"/></g></g><g id="Expressions" transform="translate(520.000000, 159.000000) scale(1 1)" blush:width="120" blush:height="120" blush:component="Expressions" blush:i="0.1.0.3" blush:value="Smile"><g id="Expressions/Smile" stroke="none" stroke-width="1" fill="none" fill-rule="evenodd" blush:i="0.1.0.3.0"><g id="eye1" transform="translate(21.027098, 10.213671)" blush:i="0.1.0.3.0.0"><path d="M0.0487023333,7.96572872 C1.82485498,-0.0171869856 25.1977023,-2.81531309 35.4827023,3.36568691 C39.0387023,5.47868691 45.6427023,11.2837287 39.7957023,14.4437287 C38.2517023,15.1157287 36.7517023,14.4267287 35.4827023,13.6077287 C21.4647023,3.86572872 -1.18942441,13.5304877 0.0487023333,7.96572872 Z" id="Fill-1" fill="#090E2B" blush:i="0.1.0.3.0.0.0"/><path d="M19.0113023,22.3973287 C13.7233023,23.8973287 9.19030233,28.1473287 8.76930233,31.6693287 C8.51430233,33.7973287 16.8643023,38.9063287 24.9173023,39.3033287 C35.5113023,39.8243287 40.8513023,34.0853287 40.8324531,32.2513287 C40.1193023,26.7013287 33.7283023,18.2233287 19.0113023,22.3973287 Z" id="Fill-6" fill="#FFF" blush:i="0.1.0.3.0.0.1"/><path d="M35.3981023,25.5550287 C27.2551023,19.4010287 14.6431023,23.4110287 8.76910233,31.6690287 C8.43210233,32.0970287 8.52910233,31.0200287 8.76310233,30.5290287 C11.5971023,24.5820287 16.7101023,21.7750287 22.6381023,20.5510287 C26.2051023,19.8140287 29.5311023,19.7540287 33.0101023,21.3120287 C34.3551023,21.9130287 36.7311023,23.7450287 38.5671023,25.8170287 C39.9991023,27.4320287 41.2051023,30.2010287 39.5481023,29.2220287 C38.2511023,28.4550287 36.4781023,26.3720287 35.3981023,25.5550287 Z" id="Fill-8" fill="#090E2B" blush:i="0.1.0.3.0.0.2"/><path d="M24.8135023,36.0623287 C29.3405023,36.0623287 33.0105023,32.7143287 33.0105023,28.5833287 C33.0105023,24.4533287 29.3405023,21.1043287 24.8135023,21.1043287 C20.2865023,21.1043287 16.6165023,24.4533287 16.6165023,28.5833287 C16.6165023,32.7143287 20.2865023,36.0623287 24.8135023,36.0623287 Z" id="Fill-10" fill="#090E2B" blush:i="0.1.0.3.0.0.3"/></g><g id="eye2" transform="translate(81.203378, 15.000183)" blush:i="0.1.0.3.0.1"><path d="M23.2557812,1.861246 C26.6096324,3.34897691 31.0744206,8.28711729 27.357522,8.28711729 C23.6406234,8.28711729 15.5900245,7.23270759 10.1930245,9.45970759 C8.30802454,9.94170759 6.87752199,10.8641173 4.98452199,11.0891173 C0.67652199,11.9281173 -1.66408888,6.76839233 1.38185604,3.64904337 C4.82290212,0.125071736 16.4397812,-1.545754 23.2557812,1.861246 Z" id="Fill-4" fill="#090E2B" blush:i="0.1.0.3.0.1.0"/><path d="M19.455322,34.2343173 C24.826322,32.9853173 28.843322,28.1153173 28.389322,24.4763173 C27.503322,19.6543173 18.218322,16.5753173 13.017322,19.2083173 C7.86632199,21.8153173 4.64332199,27.6403173 5.05932199,29.9403173 C5.66032199,31.5323173 13.966322,35.5113173 19.455322,34.2343173 Z" id="Fill-12" fill="#FFF" blush:i="0.1.0.3.0.1.1"/><path d="M15.011222,31.6060173 C18.549222,31.6060173 21.417222,28.8520173 21.417222,25.4560173 C21.417222,22.0590173 19.396222,18.8490173 15.011222,19.3060173 C11.492222,19.6720173 8.60422199,22.0590173 8.60422199,25.4560173 C8.60422199,28.8520173 11.473222,31.6060173 15.011222,31.6060173 Z" id="Fill-14" fill="#090E2B" blush:i="0.1.0.3.0.1.2"/><path d="M5.25072199,26.6376173 C7.27972199,19.0636173 16.440722,15.1686173 23.685722,18.7546173 C24.705722,19.2866173 26.361722,20.4806173 27.601722,21.9226173 C28.742722,23.2526173 28.593722,23.9496173 28.127722,23.8116173 C27.355722,23.5816173 25.722722,22.1166173 24.395722,21.4866173 C17.685722,18.3036173 10.704722,20.0896173 5.59372199,27.5586173 C5.34272199,27.9456173 5.10472199,27.0746173 5.25072199,26.6376173" id="Fill-22" fill="#090E2B" blush:i="0.1.0.3.0.1.3"/></g><path d="M86.9879908,70.3386563 C86.0131141,75.2575144 79.9689699,75.7359636 76.0323155,74.6212963 C72.832522,73.7152719 72.0034674,71.851321 73.0853454,71.2537752 C74.8485675,70.2799076 80.4997296,72.9889887 82.5858367,70.4027854 C86.305606,65.7912866 74.8914605,48.8346319 78.5177277,51.5592059 C83.3102149,55.1600121 87.6386051,67.0559034 86.9879908,70.3386563 Z" id="nose" fill="#090E2B" blush:i="0.1.0.3.0.2"/><path d="M89.6387968,90.5818454 C88.8707672,91.1602445 87.0677709,93.5463983 85.244688,95.0617056 C81.1444698,98.4697185 74.4745751,99.2530639 70.5444286,98.4697185 C63.1559339,96.997065 59.9595527,92.178225 58.0067117,90.8585998 C56.0538707,89.5389745 59.7200172,87.8442758 62.5249361,88.0931395 C65.3298551,88.3420033 67.2123883,89.156182 72.5654423,91.4592717 C76.0199316,92.9455259 83.8310598,90.8585998 86.0381944,89.5389745 C90.2484115,87.021725 91.5113061,89.1716685 89.6387968,90.5818454 Z" id="Fill-18" fill="#090E2B" blush:i="0.1.0.3.0.3"/></g></g><g id="Facial Accesories" transform="translate(517.000000, 209.000000) scale(1 1)" fill="#000" blush:width="120" blush:height="110" blush:component="Facial Accesories" blush:i="0.1.0.4" blush:value="None"><g id="Facial Accesories/None" stroke="none" stroke-width="1" fill="none" fill-rule="evenodd" fill-opacity="0" blush:i="0.1.0.4.0"/></g><g id="Glass" transform="translate(520.000000, 164.000000) scale(1 1)" fill="#000" blush:width="120" blush:height="75" blush:component="Glass" blush:i="0.1.0.5" blush:value="Shades"><g id="Glass/Shades" stroke="none" stroke-width="1" fill="none" fill-rule="evenodd" blush:i="0.1.0.5.0"><path d="M69,31.5005002 C69,46.6889564 56.6874034,59 41.5005002,59 C26.3125966,59 14,46.6889564 14,31.5005002 C14,16.3120441 26.3125966,4 41.5005002,4 C56.6874034,4 69,16.3120441 69,31.5005002" id="Fill-1" fill="#090E2B" blush:i="0.1.0.5.0.0"/><path d="M125,26 C125,38.7026477 114.702648,49 102,49 C89.2973523,49 79,38.7026477 79,26 C79,13.2973523 89.2973523,3 102,3 C114.702648,3 125,13.2973523 125,26" id="Fill-3" fill="#090E2B" blush:i="0.1.0.5.0.1"/><path d="M68.2874135,17.4234655 C72.8101304,16.1289331 77.5826933,15.6090458 82.2785199,16.3199224 C83.3722721,16.4854998 84.1341567,17.5735408 83.9802366,18.7501301 C83.8263166,19.9267193 82.8148783,20.7463063 81.721126,20.5807289 C77.6191835,19.9597573 73.3618152,20.4235232 69.3158994,21.5815813 C68.5051815,21.8136323 67.7586193,22.05896 67.0866102,22.3055594 L66.5301646,22.5165051 L66.021104,22.7230656 L65.7921411,22.8236997 C64.7778424,23.2940604 63.6011334,22.7908371 63.163888,21.6997189 C62.7266427,20.6086008 63.1944369,19.342772 64.2087357,18.8724112 L64.3676062,18.8000714 L64.7262955,18.6448762 L65.1382851,18.4773155 L65.6020186,18.2993758 C65.683533,18.2689646 65.7671385,18.2382037 65.8528028,18.2071345 L66.3912335,18.0173507 C66.4850028,17.9852138 66.5807661,17.9528513 66.6784907,17.9203047 L67.2881162,17.7231459 L67.9432593,17.5235536 C68.0561565,17.4901957 68.1708854,17.4568193 68.2874135,17.4234655 Z" id="Stroke-7" fill="#090E2B" blush:i="0.1.0.5.0.2"/><path d="M-17.4482125,22.0003811 C-8.00954929,22.2192952 13.6482886,25.3054764 14.884902,25.6792913 C15.6885875,25.9222368 16.1643856,26.8494084 15.9476267,27.7501871 C15.7308679,28.6509658 14.9036343,29.184245 14.0999489,28.9412995 C12.7249872,28.5256634 -7.04982813,25.6792913 -17.5373585,25.3774706 C-18.3720321,25.3534495 -19.0239422,24.5715255 -18.9993252,23.638968 C-18.9747082,22.7064105 -18.2857308,21.9809563 -17.4482125,22.0003811 Z" id="Path" fill="#090E2B" blush:i="0.1.0.5.0.3"/><path d="M22,30.1964868 C22,22.277363 31.1129164,12.0298327 36.8475603,13.0737953 C37.49039,13.1908192 36.2232866,12.9853828 30.6749502,19.4007271 C26.6673634,24.0345573 25.5067505,31.5076716 24.7146773,32.3256111 C23.3026819,33.7837171 22,32.7884903 22,30.1964868 Z" id="Path-2" fill="#FFF" blush:i="0.1.0.5.0.4"/><path d="M85.0492153,24.9386133 C85.5553109,19.0254996 89.103344,13.6974298 92.6036769,10.5740793 C95.0138308,8.42349659 98,7.5829738 98,8.19450724 C98,8.52463155 96.5186391,7.90026653 92.6036769,13.0401072 C88.8602969,17.9546825 87.4712339,27.7607117 86.7040839,28.5748602 C85.3365181,30.0262081 84.8299701,27.5002267 85.0492153,24.9386133 Z" id="Path-2-Copy" fill="#FFF" blush:i="0.1.0.5.0.5"/></g></g></g></g><g transform="translate(2415.000000, 1312.000000) scale(-1, 1) translate(-2415.000000, -1312.000000) translate(1860.000000, 562.000000) scale(1 1)" blush:has-customizable-colors="true" blush:width="1110" blush:height="1500" id="Master/Character/Standing" blush:component="Master/Character/Standing" blush:i="0.2" blush:value="Standing"><g id="Master/Character/Standing" stroke="none" stroke-width="1" fill="none" fill-rule="evenodd" blush:has-customizable-colors="true" blush:i="0.2.0"><g id="Lower Body/Standing" transform="translate(-64.000000, 629.000000) scale(1 1)" blush:width="1110" blush:height="871" blush:component="Lower Body/Standing" blush:i="0.2.0.0" blush:value="Stand One Leg"><g id="Lower Body/Standing/Stand One Leg" stroke="none" stroke-width="1" fill="none" fill-rule="evenodd" blush:i="0.2.0.0.0"><g id="leg-2" transform="translate(542.000000, 726.000000)" blush:i="0.2.0.0.0.0"><path d="M85.4175702,9.9475983e-14 C85.4175702,9.9475983e-14 70.9765702,50.33 69.1545702,68.549 C68.6725702,73.368 80.6475702,84.092 80.6475702,84.092 L60.3095702,108.001 L16.9515702,102.467 L12.7325702,2.444 L85.4175702,9.9475983e-14 Z" id="leg" fill="#b75858" blush:color="Skin-500" blush:i="0.2.0.0.0.0.0"/><g id="shoe-2" transform="translate(0.000000, 75.797772)" blush:i="0.2.0.0.0.0.1"><path d="M176.78477,52.5498283 C171.36377,35.7908283 132.37077,24.8268283 104.21377,16.5228283 C94.7357702,13.7268283 81.4637702,-0.183171687 75.3227702,0.00182831299 C66.3817702,0.272828313 75.1987702,19.0038283 45.2637702,17.4578283 C37.3397702,17.0488283 36.7487702,8.64382831 19.5237702,6.77882831 C16.7257702,6.47682831 12.4467702,5.94182831 8.77177019,12.6558283 C6.72377019,16.3998283 -1.60722981,50.1628283 6.70777019,63.8988283 C64.6557702,65.2388283 124.25377,63.5748283 175.73277,62.9418283 C180.75977,62.8798283 178.17177,56.8378283 176.78477,52.5498283" id="Fill-14" fill="#090E2B" blush:i="0.2.0.0.0.0.1.0"/><path d="M164.80617,68.8359283 L24.9981702,71.7059283 C15.6471702,72.1069283 1.64517019,68.9319283 0.269170191,61.1639283 C-0.757829809,55.3609283 1.45217019,42.7129283 1.91717019,41.8709283 C5.15717019,36.0009283 32.9261702,40.8649283 41.0691702,60.6299283 C92.0921702,64.3049283 178.95817,60.3159283 178.95817,60.3159283 C178.95817,60.3159283 180.28617,67.9929283 164.80617,68.8359283" id="Fill-16" fill="#FF0057" blush:i="0.2.0.0.0.0.1.1"/><path d="M110.05327,28.5977283 C113.74827,21.0357283 115.37127,19.7177283 113.78227,18.5337283 C109.98327,15.7017283 90.7502702,24.5397283 89.2512702,29.7697283 C88.1282702,33.6887283 100.91927,22.3177283 111.15527,20.5967283 C106.96927,24.4747283 103.09127,36.3357283 107.21427,33.9617283 C127.29827,22.3967283 130.47927,25.0567283 130.50227,24.6277283 C130.61527,22.5937283 122.99727,20.9707283 110.05327,28.5977283" id="Fill-19" fill="#FF0057" blush:i="0.2.0.0.0.0.1.2"/></g></g><g id="leg-1" transform="translate(515.159812, 671.090226) rotate(-8.000000) translate(-515.159812, -671.090226) translate(446.659812, 563.090226)" blush:i="0.2.0.0.0.1"><path d="M55.1088938,42.095 C55.1088938,42.095 96.7988938,16.759 116.099894,3.41060513e-13 C130.862894,42.935 136.509894,58.94 136.509894,58.94 C136.509894,58.94 100.991894,74.523 88.8768938,82.011 C83.9988938,85.026 87.9838938,104.932 87.9838938,104.932 C87.9838938,104.932 61.7978938,103.857 57.4858938,89.033 C53.1728938,74.211 55.1088938,42.095 55.1088938,42.095" id="Fill-1" fill="#b75858" blush:color="Skin-500" blush:i="0.2.0.0.0.1.0"/><g id="shoe-1" transform="translate(-0.000000, 39.429041)" blush:i="0.2.0.0.0.1.1"><path d="M82.6333938,169.923759 C95.8113938,158.236759 90.2163938,118.119759 86.5313938,88.995759 C85.2903938,79.192759 92.7103938,61.455759 90.0773938,55.904759 C86.2443938,47.821759 72.6213938,63.411759 62.0313938,35.369759 C59.2293938,27.946759 66.6913938,24.034759 61.4903938,7.50875902 C60.6463938,4.82375902 59.4193938,0.690759021 51.7953938,0.0167590207 C47.5453938,-0.358240979 13.2753938,5.55075902 4.02739384,18.675759 C26.0393938,72.297759 51.4663938,126.224759 72.6933938,173.128759 C74.7663938,177.707759 79.2623938,172.913759 82.6333938,169.923759" id="Fill-6" fill="#090E2B" blush:i="0.2.0.0.0.1.1.0"/><path d="M62.9116938,165.483359 L4.21069384,38.563359 C0.0926938412,30.157359 -2.61330616,16.057359 3.94969384,11.681359 C8.85269384,8.41335902 21.3256938,5.36635902 22.2846938,5.45435902 C28.9606938,6.06735902 35.6416938,33.456359 20.8026938,48.841359 C37.8996938,97.056359 76.3916938,175.031359 76.3916938,175.031359 C76.3916938,175.031359 69.8916938,179.325359 62.9116938,165.483359" id="Fill-8" fill="#FF0057" blush:i="0.2.0.0.0.1.1.1"/><path d="M77.8120938,99.188459 C86.2210938,99.541459 88.0800938,100.499459 88.5270938,98.568459 C89.5970938,93.952459 73.7880938,79.878459 68.3960938,80.603459 C64.3550938,81.146459 79.9020938,88.302459 85.5830938,96.989459 C80.3520938,94.709459 67.9310938,95.915459 71.7590938,98.739459 C90.4090938,112.499459 89.2480938,116.479459 89.6500938,116.329459 C91.5590938,115.617459 89.9910938,107.987459 77.8120938,99.188459" id="Fill-10" fill="#FF0057" blush:i="0.2.0.0.0.1.1.2"/></g></g><path d="M559.052071,-17.8288135 L705.122061,2.6999849 C705.122061,2.6999849 705.122105,2.70783391 705.12219,2.72342195 L705.124235,2.75434839 C718.996153,4.64986141 728.813179,6.02955443 728.813179,6.02955443 C733.117322,12.2596974 736.34168,18.6154616 738.486254,25.0968471 C774.74713,134.685377 800.586579,239.136408 820.622201,329.365429 C827.168201,358.843429 848.742046,420.392377 792.679046,463.055377 C764.680462,484.36196 682.743759,532.708034 620.331014,568.731505 C600.874529,658.586344 584.843673,725.913568 581.554546,727.843577 C573.199546,732.745577 491.318546,753.782577 491.318546,727.843577 C488.643546,622.172577 510.498546,512.738577 518.160546,431.823577 C525.281546,356.619577 526.423936,307.838024 518.160546,189.687577 C508.075546,45.4916348 559.052071,-17.8288135 559.052071,-17.8288135 L559.052071,-17.8288135 Z M674.193778,303.741721 L673.274593,308.592512 C666.934585,342.000168 660.02046,377.236768 652.921337,412.511488 C673.457724,396.817012 693.726714,382.688998 711.244046,372.936377 C702.782154,358.759122 689.225769,333.112038 674.193778,303.741721 Z" id="Combined-Shape" fill="#FFB201" transform="translate(660.642203, 361.355918) rotate(-8.000000) translate(-660.642203, -361.355918)" blush:i="0.2.0.0.0.2"/><path d="M682.938633,103.929024 C679.897633,136.976024 675.475633,170.259024 670.837633,203.107024 C665.551633,233.822024 661.769633,271.022024 652.449633,300.572024 C651.859633,302.441024 651.949633,300.352024 651.982633,299.741024 C653.505633,271.123024 662.896633,230.941024 666.709633,202.479024 C670.548633,178.740024 674.570633,152.399024 678.269633,128.499024 L682.700633,101.764024 C682.758633,101.297024 683.000633,103.409024 682.938633,103.929024" id="Fill-23" fill="#000" transform="translate(667.453075, 201.514715) rotate(-8.000000) translate(-667.453075, -201.514715)" blush:i="0.2.0.0.0.3"/><path d="M671.307247,414.599774 C665.618247,466.142774 653.627247,521.476774 638.583247,570.630774 C638.306247,571.537774 638.835247,568.872774 638.949247,568.145774 C642.483247,545.476774 650.161247,514.120774 654.110247,492.054774 C658.708247,469.187774 664.744247,437.875774 670.629247,415.588774 C670.746247,415.050774 671.374247,414.013774 671.307247,414.599774" id="Fill-25" fill="#000" transform="translate(654.908110, 492.621261) rotate(-8.000000) translate(-654.908110, -492.621261)" blush:i="0.2.0.0.0.4"/></g></g><g id="Upper Body/Standing" transform="translate(69.000000, -172.000000) scale(1 1)" blush:width="906" blush:height="1041" blush:component="Upper Body/Standing" blush:i="0.2.0.1" blush:value="Cross Hand 2"><g id="Upper Body/Standing/Cross Hand 2" stroke="none" stroke-width="1" fill="none" fill-rule="evenodd" blush:i="0.2.0.1.0"><path d="M437.594359,459.099482 C430.459908,466.5 399.670927,470.026042 410.155878,482.00709 C424.434421,498.324894 466.954518,527 478.746408,527 C524.385174,527.002094 517.650251,473.419338 517.650251,473.419338 C517.650251,473.419338 501.97082,468.050683 499.409515,463.928566 C496.129025,458.648445 496.140591,441.73374 496.796689,427.549762 C497.453838,413.366832 440.697155,406 440.697155,406 C440.697155,406 440.593422,455.988575 437.594359,459.099482 Z" id="neck" fill="#b75858" blush:color="Skin-500" blush:i="0.2.0.1.0.0"/><g id="tshirt" transform="translate(306.000000, 466.000000)" blush:i="0.2.0.1.0.1"><path d="M207.644654,4.69591742 C207.644654,4.69591742 205.480372,20.7431343 194.074479,36.6360674 C186.087062,47.7657081 173.521735,48.5418798 154.172693,36.6360674 C139.218146,27.4342663 117.359714,8.34743309 113.529314,0.28763309 C103.721993,4.27778837 32.4654428,21.8814084 32.4654428,57.7485691 C32.4654428,93.6157298 44.4310617,145.6773 44.4310617,163.77195 C44.4310617,181.86765 47.9507309,271.766862 39.5926119,308.165965 C29.6999592,351.247869 29.6999592,358.16055 69.2265808,353.940647 C108.753202,349.720745 230.943223,331.017187 253.990212,342.761766 C263.20731,347.458733 265.2206,334.453732 260.276365,313.996224 C255.39419,293.795498 257.623948,271.374815 255.585178,239.263578 C287.331073,231.570394 293.695175,217.314215 295.730792,203.445793 C304.326187,144.886362 279.896587,98.5935238 262.256712,48.5418798 C253.015714,22.3213367 207.644654,4.69591742 207.644654,4.69591742 Z" id="Fill-4" fill="#3615F6" blush:i="0.2.0.1.0.1.0"/><path d="M247.676427,141.37167 C247.812927,142.23267 247.223877,143.04222 246.359727,143.17452 C245.485077,143.31102 244.666077,142.69152 244.557927,141.81372 L242.886327,128.42517 C241.901387,114.38199 242.478677,99.28032 242.837777,85.75107 C242.838827,84.93627 243.992777,87.09612 243.998027,87.93717 C244.019027,105.66327 244.838277,123.87972 247.676427,141.37167 Z" id="Fill-6" fill="#090E2B" blush:i="0.2.0.1.0.1.1"/><path d="M195.999512,155.144636 C195.999512,155.144636 219.774662,136.575386 226.169162,136.56564 C239.005412,136.547036 249.040262,141.001136 249.040262,141.001136 C249.040262,141.001136 261.842078,165.060727 259.372262,172.231286 C257.480828,177.72264 227.687502,173.253197 213.28281,181.201048 C202.649794,187.067861 196.888694,178.38239 195.999512,155.144636 Z" id="hand-2" fill="#b75858" blush:color="Skin-500" blush:i="0.2.0.1.0.1.2"/><path d="M90.6061767,165.359865 C90.6061767,165.359865 160.167627,150.784815 184.018377,148.473765 C197.879427,147.131865 210.382827,179.501265 211.485327,187.584165 C212.585727,195.666015 145.030827,241.374615 90.6061767,252.034215 C29.4457767,264.014715 17.1832567,255.825086 2.44922669,199.845015 C-6.62731128,165.359865 22.0179143,75.168348 34.0962109,48.9302258 C44.4303865,26.4809213 103.011927,78.319065 103.011927,78.319065 L90.6061767,165.359865 Z" id="Fill-10" fill="#3615F6" blush:i="0.2.0.1.0.1.3"/><path d="M98.5997217,80.267235 C101.670972,102.660585 98.6658717,125.378385 94.7399217,147.489285 C94.3797717,149.483235 91.2255717,148.900485 91.6476717,146.886585 C95.2470717,130.555935 97.8237717,113.851485 98.3309217,97.108185 C98.4338217,91.532685 98.2910217,85.946685 97.6148217,80.413185 C97.5150717,79.798935 98.5115217,79.618335 98.5997217,80.267235" id="Fill-12" fill="#090E2B" blush:i="0.2.0.1.0.1.4"/><path d="M62.655763,148.723302 C71.310913,141.474102 75.1061763,140.024478 76.6118763,140.501178 C77.9989263,140.941128 75.7497267,137.21514 79.1401767,137.21514 C90.8844267,137.21514 99.5503435,143.348379 102.01248,145.271717 C109.356015,151.008241 113.11292,157.046162 116.56217,160.176212 C107.78522,162.209012 78.8808267,166.96479 78.8808267,166.96479 C78.8808267,166.96479 68.7073698,168.892461 65.7957198,165.463161 C63.8469198,163.167861 62.8002675,157.587908 62.655763,148.723302 Z" id="hand-1" fill="#b75858" blush:color="Skin-500" blush:i="0.2.0.1.0.1.5"/><path d="M111.952257,160.73073 C135.795657,155.27283 159.718857,150.00498 183.963357,146.64183 C197.193357,145.77348 211.352607,175.83918 213.419007,187.31463 C213.448407,187.48368 213.499857,188.02128 213.402207,188.31003 C210.870657,195.82803 195.803157,205.50168 189.497907,210.20148 C156.955257,231.22248 121.042107,249.13968 82.3989567,254.94618 C69.5763567,256.40883 51.6539067,257.59743 43.6203567,256.50228 C43.5374067,256.49073 43.6697067,256.40463 43.9227567,256.36788 C49.9109067,255.50373 56.6876067,255.24753 62.8553067,254.55138 C94.8939567,250.93098 125.753457,241.50618 154.112907,226.40928 C165.499107,220.48098 176.576607,213.94368 187.233057,206.83833 C194.729007,201.39513 203.767407,196.04958 208.979607,188.60508 C209.312457,188.13153 209.412207,187.52883 209.270457,186.96918 C206.480607,176.07648 200.983857,165.58278 194.115807,156.72918 C189.185007,150.90063 186.406707,149.34978 178.983207,150.94263 C157.146357,154.18083 133.909857,158.31468 112.113957,161.56863 C111.625707,161.66103 111.405207,160.84098 111.952257,160.73073" id="Fill-16" fill="#090E2B" blush:i="0.2.0.1.0.1.6"/><path d="M254.317231,239.96796 C226.60043,244.344932 188.952901,235.0043 166.745877,224.892135 C164.617527,223.850535 166.293327,220.503135 168.411177,221.627685 C187.194627,229.965735 207.28849,235.733025 228.053277,238.437135 C234.887727,239.565885 247.933826,239.288197 255.496679,239.288197 C255.925079,239.295547 255.37483,239.800947 254.317231,239.96796 Z" id="Fill-18" fill="#090E2B" blush:i="0.2.0.1.0.1.7"/></g></g></g><g id="Head" transform="translate(399.000000, 26.000000) scale(1 1)" blush:width="300" blush:height="300" blush:component="Head" blush:i="0.2.0.2" blush:value="No hair"><g id="Head/No hair" stroke="none" stroke-width="1" fill="none" fill-rule="evenodd" blush:i="0.2.0.2.0"><path d="M231.731517,145.493017 C231.731517,171.897935 237.188273,185.00092 237.188273,208.837991 C237.188273,248.803762 221.518054,272.017918 166.345293,262.271733 C154.072171,260.103704 124.583948,247.48695 115.395565,233.500646 C100.588713,210.96206 107.0433,203.3898 101.5123,202.6388 C94.4343,186.9158 90.1253,139.6888 97.4903,119.2218 C106.2253,94.9498 123.0523,79.4788 145.0333,77.3538 C159.108378,75.993621 187.099762,74.4832929 210.134525,97.2387744 C222.934127,109.883189 231.731517,127.541201 231.731517,145.493017 Z" id="Fill-1" fill="#b75858" blush:color="Skin-500" blush:i="0.2.0.2.0.0"/><path d="M144.920043,256.918707 C140.6296,254.843331 132.554968,250.4305 130.673968,247.9755 C129.693968,246.6965 132.914301,248.213827 134.604301,249.270827 C136.853301,250.676827 145.9816,254.6065 157.1826,258.7265 C158.1536,259.0835 164.3636,261.0765 164.5416,261.4005 C164.7086,261.7035 164.1556,262.3025 163.4386,262.2705 C158.6216,262.0525 149.649145,259.206271 144.920043,256.918707 Z" id="Fill-4" fill="#090E2B" blush:i="0.2.0.2.0.1"/><path d="M113.1651,205.0459 C91.6431,212.6819 69.4721,175.8759 87.8151,165.8519 C95.6081,161.5929 99.6481,164.5129 107.6201,173.3059 C114.4891,180.8829 121.9361,201.9339 113.1651,205.0459" id="Fill-6" fill="#b75858" blush:color="Skin-500" blush:i="0.2.0.2.0.2"/><path d="M104.0763,183.7891 C101.2033,178.0211 94.2823,174.4471 88.3043,178.4831 C86.9513,179.3961 88.7753,180.0211 89.3463,179.9571 C96.4473,179.0281 99.2663,180.9691 101.5993,185.0061 C99.3683,185.5531 97.1393,187.5381 96.8543,189.7801 C96.6803,191.1561 97.1563,195.2291 98.2063,193.9441 C98.9323,193.0561 97.3323,186.9981 102.6213,187.5511 C102.7013,187.5691 102.7733,187.5731 102.8483,187.5801 C103.0973,188.1781 105.0883,189.4161 105.9433,188.3781 C106.4673,187.7441 105.3883,186.4261 104.0763,183.7891" id="Fill-8" fill="#090E2B" blush:i="0.2.0.2.0.3"/></g></g><g id="Expressions" transform="translate(520.000000, 159.000000) scale(1 1)" blush:width="120" blush:height="120" blush:component="Expressions" blush:i="0.2.0.3" blush:value="Calm Smile"><g id="Expressions/Calm Smile" stroke="none" stroke-width="1" fill="none" fill-rule="evenodd" blush:i="0.2.0.3.0"><g id="eye1" transform="translate(24.000079, 12.999886)" blush:i="0.2.0.3.0.0"><path d="M4.87822092,23.1366138 C4.87822092,23.1366138 13.0082209,15.1016138 26.8302209,17.6006138 C38.0772209,19.6346138 42.2992209,28.8076138 42.2693796,30.3186138 C41.5022209,33.3806138 35.9152209,36.1726138 32.0652209,37.4256138 C28.2142209,38.6796138 8.96622092,40.2646138 4.87822092,23.1366138" id="white" fill="#FFF" blush:i="0.2.0.3.0.0.0"/><path d="M34.2308209,25.6942138 C34.3618209,30.5952138 29.8628209,34.6922138 24.1828209,34.8432138 C18.5028209,34.9952138 13.7928209,31.1442138 13.6618209,26.2432138 C13.5308209,21.3412138 16.5318209,17.0532138 23.7098209,17.0932138 C29.3908209,17.1252138 34.0998209,20.7922138 34.2308209,25.6942138" id="Fill-3" fill="#090E2B" blush:i="0.2.0.3.0.0.1"/><path d="M1.25032092,21.2440138 C2.46732092,21.3180138 3.78332092,22.1320138 4.93432092,22.1190138 L4.82132092,22.1840138 C14.0673209,13.2390138 33.9963209,13.0410138 40.0953209,24.3590138 C40.6603209,25.4080138 41.8153209,27.6770138 41.7353209,28.5680138 C41.7143209,28.7990138 41.1883209,28.1740138 41.0293209,28.0060138 C39.0393209,25.8850138 36.5713209,23.6590138 34.0683209,22.2170138 C25.2963209,17.1580138 14.2303209,16.9970138 5.36732092,23.1230138 C3.87232092,24.9010138 -2.44667908,22.3950138 1.25032092,21.2440138" id="Fill-5" fill="#090E2B" blush:i="0.2.0.3.0.0.2"/><path d="M39.3724209,11.7831138 C27.5314209,6.24511384 13.9354209,4.53011384 2.04642092,11.0711138 C1.30642092,11.4431138 -0.268579075,11.1581138 0.0394209246,10.3871138 C0.809420925,8.46011384 4.12842092,5.38411384 7.14142092,3.72811384 C17.0154209,-1.69688616 32.5884209,-1.43488616 40.2934209,6.05911384 C42.5904209,7.64911384 43.6434209,12.8471138 39.3724209,11.7831138" id="Fill-14" fill="#090E2B" blush:i="0.2.0.3.0.0.3"/></g><g id="eye2" transform="translate(82.117990, 14.377145)" blush:i="0.2.0.3.0.1"><path d="M0.206608889,28.3658549 C0.206608889,29.1698549 4.54561037,34.1568549 14.5696104,34.1398983 C22.2946104,34.1268549 30.8266104,27.1508549 31.1276104,23.7498549 C31.4286104,20.3478549 25.1726104,16.5478549 18.1416104,16.0408549 C8.30761037,15.3328549 0.202610369,22.9968549 0.206608889,28.3658549" id="white" fill="#FFF" blush:i="0.2.0.3.0.1.0"/><path d="M24.570912,22.2046549 C24.5739104,28.2416549 20.3149104,31.9926549 15.6719104,32.1166549 C11.0289104,32.2406549 6.95091037,29.3726549 6.20391037,24.7886549 C5.23291037,18.8266549 10.6589104,15.8296549 15.3009104,15.7056549 C19.9439104,15.5816549 24.5689104,17.5596549 24.570912,22.2046549" id="Fill-10" fill="#090E2B" blush:i="0.2.0.3.0.1.1"/><path d="M0.0201103689,26.4273549 C1.25211037,15.4753549 17.4011104,11.5293549 25.9761104,16.3743549 C28.2491104,17.6593549 29.8071104,19.1303549 30.6171104,21.7593549 C30.6751104,21.9523549 30.4141104,21.9123549 29.8821104,21.6013549 C28.3761104,20.7223549 27.2161104,20.1253549 25.5041104,19.5243549 C16.8261104,16.4773549 6.03811037,17.8623549 1.47411037,26.9423549 C1.09011037,27.7243549 -0.173889631,27.2703549 0.0201103689,26.4273549" id="Fill-12" fill="#090E2B" blush:i="0.2.0.3.0.1.2"/><path d="M1.31401037,6.80035493 C4.45201037,-0.809645071 16.6250104,-0.916645071 24.0670104,1.13235493 C25.9330104,1.64735493 27.5020104,2.29635493 28.5560104,2.99635493 C30.4970104,4.28435493 31.6110104,6.59335493 28.5170104,6.76235493 C27.4100104,6.82235493 25.6510104,6.35935493 24.5710104,6.20935493 C18.2020104,5.32435493 11.7630104,6.67135493 6.00701037,9.61035493 C3.79301037,11.0143549 -0.108989631,9.87635493 1.31401037,6.80035493" id="Fill-17" fill="#090E2B" blush:i="0.2.0.3.0.1.3"/></g><path d="M79.5163974,56.0474227 C79.9047316,56.0474227 82.4878873,60.4695558 83.4356699,62.0222568 C86.4544009,66.9676809 89.7813295,72.5049636 84.8702,75.6883 C82.4912,77.2313 75.0122,74.8407787 75.0122,73.0253 C75.0122,70.2632077 81.8382,75.1193 83.4442,72.3153 C84.3857451,70.8872578 80.8590997,63.6440183 79.5163974,59.348811 C78.7670658,56.9517537 79.1280631,56.0474227 79.5163974,56.0474227 Z" id="nose" fill="#090E2B" blush:i="0.2.0.3.0.2"/><path d="M93.917,85.9779 C78.288,85.3499 67.34,84.9099 56.819,84.4879 C53.549,84.3559 50.673,90.0739 56.294,97.5689 C64.259,108.1889 84.891,111.8759 93.281,99.0539 C97.555,92.5239 97.31,86.1149 93.917,85.9779" id="Fill-1" fill="#FFF" blush:i="0.2.0.3.0.3"/></g></g><g id="Facial Accesories" transform="translate(517.000000, 209.000000) scale(1 1)" fill="#000" blush:width="120" blush:height="110" blush:component="Facial Accesories" blush:i="0.2.0.4" blush:value="None"><g id="Facial Accesories/None" stroke="none" stroke-width="1" fill="none" fill-rule="evenodd" fill-opacity="0" blush:i="0.2.0.4.0"/></g><g id="Glass" transform="translate(520.000000, 164.000000) scale(1 1)" fill="#000" blush:width="120" blush:height="75" blush:component="Glass" blush:i="0.2.0.5" blush:value="Shades"><g id="Glass/Shades" stroke="none" stroke-width="1" fill="none" fill-rule="evenodd" blush:i="0.2.0.5.0"><path d="M69,31.5005002 C69,46.6889564 56.6874034,59 41.5005002,59 C26.3125966,59 14,46.6889564 14,31.5005002 C14,16.3120441 26.3125966,4 41.5005002,4 C56.6874034,4 69,16.3120441 69,31.5005002" id="Fill-1" fill="#090E2B" blush:i="0.2.0.5.0.0"/><path d="M125,26 C125,38.7026477 114.702648,49 102,49 C89.2973523,49 79,38.7026477 79,26 C79,13.2973523 89.2973523,3 102,3 C114.702648,3 125,13.2973523 125,26" id="Fill-3" fill="#090E2B" blush:i="0.2.0.5.0.1"/><path d="M68.2874135,17.4234655 C72.8101304,16.1289331 77.5826933,15.6090458 82.2785199,16.3199224 C83.3722721,16.4854998 84.1341567,17.5735408 83.9802366,18.7501301 C83.8263166,19.9267193 82.8148783,20.7463063 81.721126,20.5807289 C77.6191835,19.9597573 73.3618152,20.4235232 69.3158994,21.5815813 C68.5051815,21.8136323 67.7586193,22.05896 67.0866102,22.3055594 L66.5301646,22.5165051 L66.021104,22.7230656 L65.7921411,22.8236997 C64.7778424,23.2940604 63.6011334,22.7908371 63.163888,21.6997189 C62.7266427,20.6086008 63.1944369,19.342772 64.2087357,18.8724112 L64.3676062,18.8000714 L64.7262955,18.6448762 L65.1382851,18.4773155 L65.6020186,18.2993758 C65.683533,18.2689646 65.7671385,18.2382037 65.8528028,18.2071345 L66.3912335,18.0173507 C66.4850028,17.9852138 66.5807661,17.9528513 66.6784907,17.9203047 L67.2881162,17.7231459 L67.9432593,17.5235536 C68.0561565,17.4901957 68.1708854,17.4568193 68.2874135,17.4234655 Z" id="Stroke-7" fill="#090E2B" blush:i="0.2.0.5.0.2"/><path d="M-17.4482125,22.0003811 C-8.00954929,22.2192952 13.6482886,25.3054764 14.884902,25.6792913 C15.6885875,25.9222368 16.1643856,26.8494084 15.9476267,27.7501871 C15.7308679,28.6509658 14.9036343,29.184245 14.0999489,28.9412995 C12.7249872,28.5256634 -7.04982813,25.6792913 -17.5373585,25.3774706 C-18.3720321,25.3534495 -19.0239422,24.5715255 -18.9993252,23.638968 C-18.9747082,22.7064105 -18.2857308,21.9809563 -17.4482125,22.0003811 Z" id="Path" fill="#090E2B" blush:i="0.2.0.5.0.3"/><path d="M22,30.1964868 C22,22.277363 31.1129164,12.0298327 36.8475603,13.0737953 C37.49039,13.1908192 36.2232866,12.9853828 30.6749502,19.4007271 C26.6673634,24.0345573 25.5067505,31.5076716 24.7146773,32.3256111 C23.3026819,33.7837171 22,32.7884903 22,30.1964868 Z" id="Path-2" fill="#FFF" blush:i="0.2.0.5.0.4"/><path d="M85.0492153,24.9386133 C85.5553109,19.0254996 89.103344,13.6974298 92.6036769,10.5740793 C95.0138308,8.42349659 98,7.5829738 98,8.19450724 C98,8.52463155 96.5186391,7.90026653 92.6036769,13.0401072 C88.8602969,17.9546825 87.4712339,27.7607117 86.7040839,28.5748602 C85.3365181,30.0262081 84.8299701,27.5002267 85.0492153,24.9386133 Z" id="Path-2-Copy" fill="#FFF" blush:i="0.2.0.5.0.5"/></g></g></g></g></g></svg>